<svg width="1024" height="1024" viewBox="0 0 1024 1024" fill="none" xmlns="http://www.w3.org/2000/svg">
<g clip-path="url(#clip0_6174_2623)">
<path d="M256.099 257.128C256.387 256.964 256.637 256.754 257.354 256.196C258.254 253.939 258.65 251.987 259.373 249.973C259.482 248.93 259.263 247.948 259.04 246.499C259.037 233.367 259.039 220.701 259.381 207.962C261.639 206.211 261.724 204.849 259.04 203.54C259.034 201.421 259.033 199.725 259.434 197.969C261.938 197.604 264.081 197.46 266.128 196.938C267.503 196.586 268.741 195.698 270.506 195.044C275.75 195.031 280.536 195.169 285.302 194.92C286.543 194.855 287.721 193.581 288.927 192.862C288.927 192.862 288.954 192.955 289.319 192.964C293.921 192.714 292.972 189.514 292.89 187.032C292.697 181.258 292.476 175.474 291.935 169.725C291.48 164.9 293.631 163.718 298.046 163.918C304.598 164.215 311.181 164.133 317.735 163.846C318.835 163.798 319.855 161.899 320.911 160.855C320.911 160.855 320.949 160.948 321.308 160.923C322.438 159.28 323.798 157.688 323.873 156.038C324.147 150.062 324.27 144.05 323.907 138.084C323.609 133.172 325.475 131.821 330.213 131.892C346.344 132.134 362.483 132.095 378.613 131.839C380.725 131.806 382.807 129.885 384.902 128.839C384.902 128.839 384.938 128.939 385.316 128.946C386.459 127.431 387.872 125.915 387.887 124.385C388.048 107.751 388.155 91.1123 387.892 74.4809C387.814 69.5453 389.137 67.7851 394.311 67.8779C410.941 68.1763 427.58 68.0057 444.215 67.9593C446.349 67.9533 449.312 68.8658 448.923 64.8685C448.923 64.8685 448.961 64.9602 449.34 64.96C450.475 63.5929 451.835 62.2471 451.884 60.8557C452.115 54.2036 452.124 47.5354 451.939 40.8805C451.836 37.1884 453.259 35.9221 456.918 35.9307C494.381 36.0192 531.845 36.0154 569.307 35.9516C572.707 35.9458 574.134 37.127 574.051 40.6133C573.894 47.2697 573.978 53.9326 574.017 60.5925C574.049 66.198 575.833 67.9643 581.534 67.9738C597.684 68.0007 613.835 67.9827 629.986 67.9861C637.6 67.9877 638.008 68.3866 638.009 75.7945C638.009 92.0287 637.93 108.263 638.048 124.497C638.089 130.22 640.161 131.966 646.043 131.974C660.362 131.992 674.681 131.987 689.147 132.218C689.862 132.289 690.431 132.132 691.334 131.979C692.112 131.981 692.557 131.979 693.245 132.259C697.628 132.332 699.902 135.041 702.012 138.415C702.011 140.221 702.014 141.611 701.718 143.287C701.623 147.715 701.826 151.856 702.018 156.396C701.802 159.849 702.327 162.436 706.084 163.404C710.786 163.858 715.393 163.92 720.401 163.985C721.867 163.987 722.934 163.986 724.258 164.269C733 165.836 733.001 165.836 733.004 174.798C733.006 179.254 732.857 183.718 733.095 188.162C733.165 189.476 734.324 190.732 735.03 192.373C737.052 193.817 739.026 194.902 741.291 196.284C746.054 196.382 750.527 196.184 755.459 195.99C766.829 196.213 767.114 194.067 766.577 204.075C765.997 210.604 765.797 217.033 765.677 223.463C765.674 223.637 766.532 223.828 767.036 224.378C768.492 228.852 771.945 227.919 775.291 228.265C781.719 228.375 787.859 228.181 794.334 227.989C795.113 227.994 795.558 227.997 796.055 228.415C796.406 231.116 796.963 233.402 796.967 235.688C797.022 272.995 796.98 310.303 797.092 347.61C797.097 349.416 798.319 351.218 798.976 353.447C798.976 355.574 798.974 357.275 798.58 359.077C797.795 360.846 797.061 362.515 797.058 364.184C796.997 401.793 797.016 439.401 797.014 477.007C797.007 477.004 797.01 477.023 796.541 477.017C788.741 477.008 781.409 477.005 774.078 477.005C763.312 477.005 758.206 484.202 762.303 494.229C764.632 499.929 763.142 505.449 762.835 511.067C762.652 514.406 762.258 517.742 762.249 521.08C762.243 523.373 763.064 525.684 762.946 527.958C762.455 537.346 762.763 546.692 761.594 556.167C760.523 564.848 761.862 574.076 761.224 583.128C760.861 588.274 762.903 593.575 762.672 598.753C762.576 600.904 759.604 604.378 757.537 604.705C752.172 605.555 746.575 605.142 741.09 604.862C740.019 604.808 738.251 603.162 738.14 602.11C737.532 596.348 737.014 590.539 737.068 584.752C737.207 569.959 737.848 555.171 737.925 540.379C737.97 531.59 737.269 522.799 737.027 514.006C736.939 510.804 734.931 510.169 732.412 510.027C725.956 509.665 719.498 509.096 713.041 509.099C709.001 509.101 707.86 507.51 707.938 503.724C708.121 494.812 707.993 485.895 707.993 476.979C707.993 463.731 708.113 450.482 707.954 437.235C707.856 429.109 707.085 420.987 707.073 412.863C707.062 405.406 707.511 397.938 708.049 390.495C708.392 385.759 705.715 383.537 701.811 383.125C695.066 382.413 688.201 381.78 681.477 382.297C677.161 382.629 676.111 381.368 675.974 377.661C675.72 370.762 675.738 363.811 674.785 357.002C674.442 354.549 671.838 350.721 669.911 350.49C663.361 349.707 656.585 349.689 650.029 350.484C645.635 351.018 644.293 351.026 644.048 346.479C643.878 343.328 644.27 340.148 644.124 336.994C643.92 332.609 643.706 328.19 642.943 323.883C642.692 322.463 640.879 320.478 639.52 320.241C633.536 319.199 627.464 318.197 621.412 318.123C612.127 318.01 602.835 318.745 593.542 318.958C590.928 319.018 588.144 317.843 585.714 318.411C580.99 319.514 580.147 317.152 579.985 313.444C579.683 306.547 579.505 299.635 578.865 292.768C578.715 291.15 577.179 288.65 575.856 288.334C570.923 287.157 565.821 286.183 560.769 286.113C549.64 285.959 538.501 286.648 527.37 286.547C503.29 286.328 479.211 285.861 455.135 285.335C454.096 285.312 452.263 283.732 452.208 282.794C451.898 277.564 452.069 272.308 451.987 267.062C451.879 260.127 451.957 260 458.757 259.998C475.089 259.993 491.422 260.018 507.754 259.986C513.232 259.975 515.95 257.227 515.986 251.736C516.03 245.237 516.019 238.737 515.988 232.237C515.976 229.767 516.52 228.03 519.563 228.06C526.336 228.127 533.111 228.057 539.884 227.987C545.246 227.932 547.955 225.125 547.987 219.603C548.023 213.437 548.168 207.264 547.934 201.107C547.782 197.121 549.361 195.811 553.219 195.939C559.712 196.154 566.252 196.381 572.696 195.781C574.894 195.577 578.45 193.09 578.663 191.319C579.629 183.27 579.951 175.101 579.853 166.984C579.787 161.578 577.107 159.373 571.737 159.015C565.453 158.596 559.153 158.424 552.871 157.988C542.821 157.29 536.957 163.906 538.699 174.596C538.875 175.672 538.536 176.839 538.388 177.958C538.053 180.495 537.925 183.093 537.241 185.535C536.879 186.828 535.639 188.714 534.61 188.843C529.36 189.497 524.049 189.943 518.759 189.959C487.094 190.051 455.429 190.003 423.764 190.008C416.247 190.009 413.033 193.29 413.007 200.993C412.99 206.159 412.791 211.337 413.072 216.488C413.307 220.793 411.277 221.967 407.425 222.053C401.464 222.187 395.503 222.552 389.557 223.016C383.086 223.521 382.01 224.808 382.008 231.376C382 257.464 381.824 283.554 382.091 309.64C382.188 319.112 379.076 318.02 372.519 317.938C366.939 317.868 361.263 317.435 355.823 318.335C353.623 318.699 350.646 321.969 350.277 324.277C349.403 329.732 349.596 335.418 349.879 340.984C350.276 348.787 350.267 349.003 342.38 349.004C336.881 349.004 331.373 348.823 325.884 349.077C322.642 349.227 319.439 350.44 316.203 350.513C309.745 350.659 303.241 349.89 296.824 350.384C292.344 350.728 291.609 348.3 291.486 345.222C291.342 341.598 291.953 337.95 291.971 334.312C292.04 320.746 291.998 320.749 278.644 318.924C277.993 318.835 277.294 318.299 276.738 318.442C273.796 319.201 270.893 320.11 267.535 320.971C264.73 320.976 262.366 320.976 259.775 320.709C255.145 319.85 254.074 322.62 254.034 326.131C253.95 333.622 253.944 341.115 254.032 348.606C254.081 352.785 257.045 355.976 261.106 355.946C268.231 355.894 275.355 355.581 282.475 355.273C285.409 355.147 286.841 356.392 286.744 359.296C286.523 365.919 286.113 372.539 286.051 379.162C285.994 385.157 288.942 387.969 294.821 387.99C300.814 388.011 306.808 388.037 312.801 387.985C316.504 387.953 318.08 389.428 318.067 393.38C317.952 427.176 318.083 460.973 317.915 494.769C317.89 499.863 316.697 504.951 315.785 510.052C315.352 510.069 315.179 510.075 314.736 509.773C311.233 509.491 307.615 507.087 304.536 510.971C301.055 510.98 298.027 510.979 294.726 510.694C286.213 509.94 277.962 509.593 269.74 508.899C268.132 508.763 265.491 507.507 265.275 506.39C263.881 499.184 263.208 491.84 261.899 484.613C261.448 482.122 260.456 479.086 258.642 477.638C256.082 475.593 246.856 477.087 244.548 478.97C242.424 478.969 240.725 478.966 238.968 478.634C237.931 478.525 236.952 478.743 235.549 478.966C233.426 478.969 231.727 478.968 229.985 478.632C228.974 477.52 228.006 476.742 227.037 475.643C227.039 474.893 227.04 474.464 227.412 473.944C229.516 471.345 230.241 468.945 227.041 466.599C227.04 465.501 227.043 464.768 227.432 463.933C229.319 459.76 230.661 455.701 227.048 451.494C227.041 430.03 227.041 409.031 227.431 387.928C228.015 382.066 228.22 376.307 228.343 370.546C228.346 370.362 227.498 370.159 227.042 369.499C227.038 358.033 227.04 347.033 227.433 335.929C228.188 335.316 228.864 334.811 228.871 334.297C228.962 327.663 229.025 321.026 228.892 314.394C228.876 313.571 227.694 312.772 227.047 311.538C227.045 309.423 227.047 307.73 227.439 305.931C228.192 305.314 228.869 304.805 228.873 304.29C228.956 294.656 229.006 285.021 228.895 275.388C228.885 274.573 227.687 273.773 227.037 272.542C227.038 270.425 227.041 268.731 227.42 266.942C228.427 265.101 229.059 263.355 229.914 260.994C236.656 260.994 243.675 261.103 250.686 260.905C252.151 260.864 253.583 259.687 255.272 258.877C255.709 258.189 255.904 257.658 256.099 257.128Z" fill="#3980F0"/>
<path d="M510.912 703.849C511.612 702.151 512.874 700.466 512.918 698.751C513.121 690.818 512.985 682.875 513.435 674.466C525.324 673.999 536.748 674.001 548.173 674.002C555.623 674.003 563.077 674.102 570.523 673.919C572.02 673.882 573.491 672.768 575.28 671.847C575.733 670.567 576.005 669.591 576.006 668.615C576.024 649.312 576.015 630.008 575.984 610.705C575.983 609.926 575.708 609.147 575.537 608.247C565.062 608.247 554.836 608.247 543.869 608.247C543.869 618.982 543.869 629.415 543.934 639.921C543.999 639.993 543.852 639.868 543.392 639.873C532.916 639.835 522.899 639.794 512.882 639.752C512.882 597.8 512.882 555.848 512.882 512.967C503.4 512.967 494.156 512.967 484.449 512.505C484.139 510.739 484.436 509.434 484.42 508.133C484.308 498.79 484.131 489.448 484.444 480.056C504.664 480.061 524.415 480.115 544.146 480.479C544.065 481.2 544.003 481.611 543.55 482.11C542.777 483.044 542.066 483.888 542.063 484.735C541.995 503.376 541.971 522.018 542.088 540.658C542.095 541.771 543.356 542.876 544.281 544.052C544.692 544.175 544.854 544.231 545.131 544.654C554.615 545.11 563.983 545.219 573.351 545.24C573.866 545.241 574.382 544.513 575.082 544.091C575.618 544.133 575.968 544.208 576.506 544.712C576.76 545.76 576.827 546.378 576.515 547.005C567.107 549.721 558.056 552.365 549.073 555.22C547.946 555.579 547.175 557.056 546.239 558.015C547.434 558.675 548.561 559.645 549.839 559.923C551.756 560.341 553.865 559.965 555.739 560.482C559.217 561.441 561.72 560.913 563.821 557.651C565.559 554.95 568.933 555.323 569.83 558.359C570.978 562.249 571.664 566.356 571.918 570.409C572.291 576.36 576.942 581.529 583.036 582.348C583.655 583.979 584.24 585.262 584.794 586.48C579.218 590.49 577.667 590.586 572.165 591.194C569.574 591.481 567.205 593.779 564.735 595.166C564.949 595.692 565.163 596.217 565.377 596.742C571.111 599.087 578.737 595.036 583.478 602.922C585.299 597.68 587.182 593.435 593.002 595.424C593.342 598.801 593.378 601.836 594.139 604.677C594.563 606.26 596.192 607.52 597.277 608.926C598.521 607.503 599.833 606.131 600.973 604.629C601.381 604.093 601.378 603.243 601.562 602.536C602.614 603.537 602.824 604.545 603.077 605.543C604.619 611.619 611.688 617.308 616.92 615.717C627.912 612.376 639.169 613.822 650.289 613.115C655.535 612.781 660.855 613.839 666.149 613.956C672.682 614.101 676.82 610.146 676.978 603.717C677.375 587.601 677.308 571.463 678.139 555.37C678.616 546.154 674.455 542.744 666.038 541.02C663.75 540.551 661.486 539.965 659.211 539.432C659.223 539.066 659.234 538.7 659.245 538.334C662.77 536.848 666.295 535.361 668.764 534.32C668.989 531.541 668.73 529.674 669.335 528.148C671.813 521.895 670.849 520.072 664.176 519.024C662.766 518.802 661.392 518.347 660.001 517.747C660.002 517.326 660.003 517.157 660.46 516.99C662.08 516.991 663.245 516.991 664.41 516.991C672.606 516.993 673.99 515.635 674.001 507.528C674.01 500.208 674.1 492.885 673.92 485.568C673.882 484.038 672.819 482.533 672.167 480.75C672.071 480.307 672.037 480.128 671.921 479.577C668.39 478.47 664.945 477.125 661.489 477.1C636.851 476.917 612.21 476.918 587.572 477.091C583.674 477.118 579.784 478.304 575.922 478.49C575.954 468.124 575.954 458.224 575.954 447.973C585.73 447.973 594.543 447.792 603.342 448.057C607.179 448.172 608.093 446.821 608.077 443.188C607.956 415.058 607.93 386.927 608.125 358.798C608.155 354.549 606.493 353.924 602.858 353.953C585.215 354.091 567.57 354.008 549.926 354.004C548.154 354.003 546.382 354.004 544.02 354.004C544.02 344.564 543.837 335.782 544.103 327.014C544.222 323.084 543.035 321.879 539.057 321.925C521.914 322.125 504.768 322.013 487.624 321.99C485.864 321.988 484.105 321.82 481.861 321.705C481.861 310.877 481.861 300.581 482.328 290.181C512.125 290.061 541.456 290.098 570.787 289.965C574.627 289.948 576.191 291.074 576.065 295.078C575.836 302.404 576.22 309.75 575.932 317.071C575.775 321.047 577.046 322.194 581.012 322.153C599.175 321.965 617.342 322.16 635.506 322.025C638.954 321.999 640.207 323 640.113 326.534C639.903 334.361 640.161 342.2 639.999 350.029C639.936 353.063 640.936 354.149 644.002 354.085C651.331 353.932 658.682 354.359 665.993 353.967C670.999 353.699 672.268 355.584 672.054 360.269C671.721 367.585 672.091 374.932 671.97 382.262C671.923 385.067 672.89 386.093 675.717 386.042C683.048 385.91 690.401 386.325 697.709 385.901C702.934 385.598 704.103 387.519 704.08 392.468C703.899 430.798 703.981 469.129 704.053 507.459C704.056 509.337 704.722 511.214 705.348 513.366C713.309 514.115 721.018 514.426 728.678 515.209C730.101 515.354 732.442 517.368 732.476 518.573C732.863 532.051 732.911 545.539 732.988 559.024C733.04 568.338 733.04 577.652 732.967 586.966C732.944 589.902 732.213 592.874 732.499 595.762C733.024 601.064 730.251 604.771 724.84 604.969C720.854 605.114 716.818 604.66 712.88 605.118C710.185 605.432 707.62 606.856 704.761 607.852C704.525 607.92 704.042 608.02 703.641 608.1C702.829 608.993 702.1 609.79 702.058 610.621C701.692 617.974 701.213 625.336 701.302 632.689C701.332 635.134 702.913 637.559 703.854 640.27C703.949 640.736 703.976 640.924 704.003 641.113C704.003 671.11 703.921 701.108 704.098 731.104C704.122 735.241 702.68 736.166 698.915 736.071C690.266 735.853 681.608 736.002 672.085 736.002C672.085 746.568 672.085 756.811 671.711 767.489C670.89 767.848 670.444 767.772 669.906 767.352C667.884 766.34 665.949 765.088 664.026 765.107C656.945 765.179 649.863 765.599 642.796 766.093C641.838 766.16 640.962 767.39 640.029 768.045C640.011 768.009 640.082 768.05 639.681 768.082C638.521 769.744 637.11 771.378 637.12 773.003C637.156 778.955 637.566 784.912 638.029 790.852C638.374 795.276 636.035 796.906 632.119 796.974C626.959 797.063 621.764 796.651 616.65 797.142C613.728 797.423 610.937 799.071 608.06 800.564C608.032 811.21 608.032 821.395 608.032 832.896C597.096 832.896 587.079 832.896 576.769 832.591C565.286 832.139 554.096 831.991 542.906 831.843C543.283 830.097 543.981 828.353 543.989 826.606C544.068 809.452 543.897 792.295 544.126 775.144C544.183 770.869 542.752 769.862 538.713 769.909C521.395 770.111 504.071 769.878 486.753 770.093C482.4 770.147 480.859 768.84 480.997 764.42C481.274 755.506 481.079 746.578 481.079 736.707C471.783 736.707 462.186 736.707 452.703 736.37C462.843 735.964 472.869 735.896 483.372 735.889C514.402 735.949 544.954 735.949 575.651 735.949C575.651 724.977 575.651 714.624 575.651 704.166C555.455 704.166 535.675 704.166 515.482 704.113C513.683 703.99 512.297 703.92 510.912 703.849ZM586.857 672.537C592.471 672.075 593.688 667.68 594.611 663.385C594.897 662.05 593.706 660.397 593.032 658.426C591.237 659.985 590.187 660.897 588.071 662.735C586.605 655.701 585.345 649.653 584.064 643.506C583.634 643.893 583.23 644.079 583.21 644.301C582.475 652.179 581.579 660.051 581.18 667.948C581.039 670.725 581.862 673.837 586.857 672.537ZM592.363 626.483C593.569 625 594.776 623.517 595.462 622.674C598.337 623.614 600.497 624.953 602.529 624.779C604.096 624.644 605.5 622.611 606.977 621.422C605.534 620.283 604.241 618.519 602.619 618.13C599.07 617.281 595.355 617.129 591.608 616.681C586.993 626.498 586.189 637.377 590.666 640.047C591.165 635.586 591.631 631.42 592.363 626.483ZM585.511 610.218C583.556 608.232 581.701 609.15 581.55 611.264C581.2 616.183 581.277 621.202 583.678 625.931C587.431 623.517 588.168 617.309 585.511 610.218ZM639.413 620.381C641.323 620.965 643.233 621.548 645.143 622.132C645.253 621.304 645.363 620.476 645.473 619.648C643.489 619.648 641.505 619.648 639.413 620.381ZM652.662 619.594C654.83 620.118 656.997 620.642 659.164 621.165C659.222 620.496 659.281 619.826 659.339 619.156C657.317 619.156 655.294 619.156 652.662 619.594Z" fill="#B6CFE7"/>
<path d="M353.069 864.024C353.069 864.024 353.367 863.877 353.867 863.919C354.913 863.641 355.458 863.322 356.314 862.839C358.905 860.01 359.532 857.571 358.323 853.726C357.164 850.042 359.034 845.512 358.503 841.495C357.94 837.245 359.983 836.703 363.136 836.55C364.747 836.471 366.379 836.442 367.958 836.153C380.906 833.784 384.42 837.439 382.169 850.495C381.57 853.972 381.779 857.654 382.076 861.203C382.389 864.937 386.188 867.573 389.952 867.579C396.406 867.591 402.859 867.853 409.313 868.006C412.502 868.081 414.16 869.381 414.052 872.897C413.865 878.996 414.189 885.113 413.943 891.207C413.744 896.105 415.748 898.933 420.592 899.273C426.542 899.691 432.513 899.865 438.479 899.972C445.396 900.096 445.857 900.584 446.039 907.322C446.204 913.446 446.287 919.621 447.224 925.647C447.532 927.628 450.151 930.312 452.142 930.756C456.775 931.79 461.667 931.931 466.456 931.951C490.611 932.052 514.766 931.998 538.922 931.998C549.417 931.998 559.913 932.059 570.407 931.969C576.203 931.919 578.595 929.81 578.986 924.302C579.467 917.526 579.828 910.733 579.957 903.942C580.116 895.593 577.43 893.024 568.963 893.012C553.137 892.989 537.31 892.901 521.486 893.072C517.427 893.116 515.751 891.9 515.925 887.664C516.191 881.177 516.18 874.665 515.922 868.178C515.778 864.562 514.517 861.277 510.004 861.01C504.05 860.659 498.098 860.278 492.14 860.024C486.807 859.797 484.883 858.104 485.065 852.73C485.2 848.729 486.478 844.714 486.231 840.769C486.035 837.645 486.876 837.02 489.618 836.962C501.572 836.71 513.521 836.202 525.476 836.034C537.327 835.867 549.183 835.995 561.036 835.994C574.363 835.994 587.691 836.043 601.017 835.973C608.179 835.935 610.324 834.26 610.996 827.617C611.611 821.527 611.789 815.385 611.952 809.26C612.029 806.38 613.011 805.037 616.049 804.951C622.341 804.773 628.625 804.325 634.912 803.991C641.386 803.647 643.926 801.08 643.983 794.679C644.033 788.936 644.086 783.189 643.962 777.448C643.894 774.271 645.128 772.957 648.364 772.941C652.492 772.921 656.645 772.133 660.732 772.43C662.229 772.539 664.54 774.63 664.801 776.113C665.628 780.815 665.993 785.66 665.939 790.443C665.804 802.23 665.284 814.013 665.025 825.8C664.909 831.062 669.848 835.816 675.163 836.023C681.121 836.254 687.102 836.433 693.008 837.161C694.467 837.341 696.755 839.515 696.809 840.848C697.033 846.367 696.724 851.93 696.266 857.449C695.904 861.802 697.881 864.312 702.37 863.99C703.228 863.95 703.718 863.898 704.207 863.847C704.207 863.847 704.109 863.901 704.143 864.146C704.454 864.924 704.731 865.456 705.093 866.387C706.679 867.19 708.173 867.915 709.68 867.944C716.343 868.072 723.01 867.962 729.675 868.009C739.099 868.075 748.531 868.045 757.94 868.478C759.315 868.541 761.381 870.742 761.742 872.28C762.655 876.164 762.809 880.23 763.211 884.229C763.828 890.378 762.457 891.96 756.48 891.996C751.148 892.027 745.808 892.181 740.486 891.953C735.58 891.742 731.226 891.756 731.844 898.594C731.893 899.14 731.41 899.878 730.961 900.302C727.43 903.639 728.649 907.269 730.481 910.723C734.585 918.457 731.349 924.004 722.574 924.004C695.58 924.005 668.586 923.952 641.593 924.102C639.545 924.114 635.846 925.364 635.733 926.36C635.032 932.504 633.843 939.072 635.324 944.857C636.989 951.358 634.434 956.263 627.219 956.165C598.564 955.775 569.901 956.003 541.24 956.002C520.823 956.001 500.405 955.999 479.987 955.998C452.16 955.998 424.333 956.022 396.506 955.97C392.96 955.963 390.214 954.149 390.097 950.476C389.857 942.992 389.619 935.443 390.358 928.018C390.778 923.799 388.618 923.273 385.977 923.281C379.018 923.3 372.06 923.934 365.1 923.967C343.939 924.069 322.776 923.907 301.615 924.091C297.823 924.123 294.771 922.281 294.391 919.473C293.63 913.852 294.263 908.035 294.412 902.301C294.485 899.493 295.274 896.61 294.847 893.901C293.851 887.591 292.812 881.426 296.528 875.571C296.89 875 296.784 873.927 296.537 873.209C295.369 869.813 297.215 869.006 300.023 868.995C306.769 868.97 313.519 869.088 320.262 868.938C330.386 868.713 340.508 868.353 350.624 867.899C351.442 867.862 352.207 866.659 353.015 865.668C353.045 864.901 353.057 864.462 353.069 864.024Z" fill="#3981F1"/>
<path d="M359.881 831.769C365.812 831.525 371.742 831.252 377.674 831.051C380.143 830.968 382.617 831.037 385.683 831.037C385.683 820.747 385.683 810.853 385.683 800.591C387.466 800.349 388.712 800.034 389.959 800.031C408.417 799.991 426.876 800.09 445.332 799.903C449.118 799.865 450.189 801.065 450.089 804.747C449.852 813.534 450.013 822.332 450.013 831.953C460.613 831.953 470.842 831.953 481.517 832.38C482.036 833.871 482.108 834.936 482.128 836.387C482.114 837.547 482.151 838.322 482.13 839.394C482.104 840.091 482.137 840.491 482.117 841.256C482.096 842.111 482.129 842.6 482.101 843.547C482.011 849.464 482.088 854.929 481.907 860.385C481.815 863.188 482.831 864.165 485.63 864.114C494.397 863.955 503.168 863.997 512.26 864.239C512.581 874.908 512.581 885.3 512.581 896.207C534.385 896.207 554.949 896.207 575.661 896.207C575.661 906.958 575.661 917.174 575.661 927.52C533.632 927.52 491.982 927.52 449.983 927.52C449.983 918.247 449.802 909.428 450.067 900.623C450.183 896.769 448.816 895.605 445.175 895.924C442.201 896.184 439.185 895.969 436.188 895.969C430.266 895.967 424.343 895.968 417.853 895.968C417.853 884.845 417.853 874.548 417.85 863.85C415.873 862.635 413.951 861.304 411.917 861.102C405.873 860.504 399.787 860.158 393.713 860.091C389.783 860.048 388.999 857.874 389 854.703C389.003 850.407 389.343 846.073 388.881 841.827C388.554 838.831 387.134 835.954 385.889 832.725C377.011 832.207 368.446 831.988 359.881 831.769Z" fill="#B5D0E8"/>
<path d="M353.982 736.017C344.984 736.019 335.982 735.84 326.992 736.108C323.052 736.225 321.887 735.037 321.909 731.053C322.064 703.228 321.978 675.401 321.97 647.574C321.969 645.618 321.97 643.662 321.97 641.103C311.193 641.103 300.953 641.103 290.118 641.103C290.118 630.28 290.118 620.04 290.118 609.197C279.294 609.197 269.056 609.197 258 609.197C258 577.011 258 545.435 258.5 513.418C269.365 513.054 279.731 513.13 290.097 513.205C290.097 544.491 290.097 575.776 290.097 607.993C294.032 607.993 297.77 607.996 301.507 607.993C306.668 607.989 311.841 608.194 316.985 607.905C320.831 607.69 322.273 608.789 322.131 612.884C321.827 621.663 322.038 630.46 322.038 639.98C330.74 639.98 338.996 639.978 347.252 639.98C354.021 639.982 354.013 639.984 354.015 646.65C354.02 676.116 354.031 705.583 354.019 735.525C353.999 736.001 353.982 736.017 353.982 736.017Z" fill="#BAD0E2"/>
<path d="M705.079 513.091C704.722 511.214 704.056 509.337 704.053 507.459C703.981 469.129 703.899 430.798 704.08 392.468C704.103 387.519 702.934 385.598 697.709 385.901C690.401 386.325 683.048 385.91 675.718 386.042C672.89 386.093 671.923 385.067 671.97 382.262C672.091 374.932 671.721 367.585 672.055 360.269C672.268 355.584 670.999 353.699 665.993 353.967C658.682 354.36 651.331 353.932 644.002 354.085C640.936 354.149 639.936 353.063 639.999 350.029C640.162 342.2 639.903 334.361 640.113 326.534C640.208 323 638.955 321.999 635.506 322.025C617.342 322.16 599.175 321.965 581.012 322.153C577.046 322.194 575.775 321.047 575.932 317.071C576.22 309.75 575.836 302.404 576.065 295.078C576.191 291.074 574.627 289.948 570.787 289.965C541.456 290.098 512.125 290.061 482.03 290.12C480.861 290.158 480.456 290.153 479.625 290.042C477.451 289.997 475.703 290.057 473.491 290.093C464.723 290.017 456.42 289.965 448.089 289.658C448.012 289.24 447.962 289.076 447.953 288.454C448.021 277.354 448.049 266.713 448.038 256.037C447.999 256.003 448.074 256.077 448.536 256.06C468.414 256.041 487.831 255.957 507.246 256.109C510.85 256.137 512.264 255.265 512.136 251.416C511.844 242.63 511.974 233.83 512.003 224.836C512.073 224.636 512.128 224.217 512.583 224.171C521.804 224.093 530.573 224.164 539.333 223.933C540.957 223.89 542.549 222.63 544.42 221.627C544.792 214.878 544.946 208.435 544.993 201.991C545.051 194.232 546.208 193.128 553.839 192.972C560.545 192.835 567.245 192.414 574.347 191.999C575.133 191.392 575.85 190.909 575.856 190.417C575.948 181.815 576.049 173.209 575.83 164.612C575.808 163.733 573.773 162.197 572.642 162.169C564.208 161.957 555.762 161.931 547.33 162.176C546.133 162.211 544.989 164.02 543.443 165.114C542.717 172.08 541.482 179.047 542.299 185.765C542.965 191.243 540.276 192.054 536.572 192.863C535.137 193.177 533.587 193.008 532.09 192.994C496.499 192.669 460.908 192.304 425.316 192.085C423.222 192.072 421.121 193.228 418.781 193.984C418.297 194.415 418.056 194.702 417.44 195.102C416.712 196.737 416.088 198.252 416.056 199.78C415.936 205.558 416.011 211.341 416.008 217.122C416.004 224.561 415.567 224.886 408.153 225.04C401.795 225.173 395.443 225.595 388.738 225.938C387.569 226.344 386.751 226.702 385.648 227.353C385.241 228.461 385.025 229.275 385.014 230.091C384.662 256.879 384.301 283.667 384.01 310.456C383.909 319.77 383.75 319.744 374.507 320.091C368.003 320.334 361.531 321.405 355.03 322.07C355.015 322.033 355.093 322.049 354.855 322.15C354.429 322.532 354.241 322.813 354.049 323.052C354.045 323.01 354.112 323.059 353.743 323.218C352.916 325.052 352.115 326.716 352.066 328.404C351.899 334.044 351.988 339.692 352.005 345.337C352.019 349.853 349.777 351.937 345.281 352.014C328.719 352.298 312.159 352.639 295.6 353.052C294.083 353.089 292.583 353.795 290.954 354.42C290.57 355.1 290.307 355.55 289.738 356.285C289.287 360.679 288.957 364.79 289.05 368.892C289.15 373.256 289.652 377.611 290.049 382.294C290.755 383.138 291.39 383.659 292.349 384.435C299.487 384.791 306.302 384.907 313.117 384.991C318.705 385.06 319.976 386.135 319.982 391.644C320.026 429.78 319.978 467.916 320.062 506.052C320.069 509.108 319.061 510.396 316.044 510.042C316.697 504.952 317.89 499.863 317.915 494.77C318.083 460.974 317.952 427.176 318.067 393.38C318.08 389.428 316.504 387.953 312.802 387.985C306.808 388.037 300.815 388.011 294.821 387.99C288.942 387.969 285.994 385.157 286.051 379.162C286.113 372.539 286.523 365.919 286.744 359.296C286.841 356.392 285.409 355.147 282.475 355.273C275.355 355.581 268.231 355.894 261.106 355.946C257.045 355.976 254.081 352.785 254.032 348.606C253.944 341.115 253.95 333.622 254.034 326.131C254.074 322.62 255.145 319.85 259.779 320.947C260.01 321.45 260.021 321.923 259.704 322.012C258.895 322.752 258.403 323.402 257.63 324.351C257.528 333.08 257.705 341.509 257.964 350.273C258.722 351.128 259.397 351.649 260.381 352.431C264.782 352.797 268.879 353.07 272.966 352.959C277.307 352.841 281.638 352.36 286.313 351.949C287.145 350.89 287.637 349.918 288.399 348.645C288.497 343.916 288.326 339.487 288.116 334.716C288.119 333.917 288.161 333.46 288.565 332.899C288.74 329.865 288.551 326.935 288.236 323.685C287.405 322.864 286.699 322.362 285.675 321.595C279.564 321.209 273.77 321.088 267.976 320.966C270.893 320.11 273.796 319.201 276.738 318.442C277.294 318.299 277.993 318.835 278.644 318.924C291.998 320.749 292.04 320.746 291.971 334.312C291.953 337.951 291.342 341.598 291.486 345.222C291.609 348.3 292.345 350.728 296.824 350.384C303.241 349.89 309.745 350.659 316.204 350.513C319.439 350.44 322.642 349.227 325.885 349.077C331.373 348.824 336.881 349.004 342.381 349.004C350.267 349.003 350.276 348.787 349.879 340.985C349.596 335.418 349.403 329.732 350.277 324.277C350.647 321.969 353.623 318.699 355.823 318.335C361.263 317.436 366.939 317.868 372.519 317.938C379.076 318.02 382.188 319.112 382.091 309.64C381.824 283.554 382 257.464 382.008 231.376C382.01 224.808 383.086 223.521 389.557 223.017C395.503 222.553 401.464 222.187 407.425 222.053C411.277 221.967 413.307 220.793 413.072 216.489C412.791 211.338 412.99 206.159 413.008 200.993C413.033 193.29 416.247 190.009 423.764 190.008C455.429 190.003 487.094 190.051 518.759 189.959C524.049 189.943 529.36 189.497 534.61 188.843C535.639 188.714 536.879 186.828 537.241 185.535C537.925 183.093 538.054 180.495 538.388 177.958C538.536 176.84 538.875 175.672 538.7 174.596C536.957 163.906 542.821 157.29 552.871 157.988C559.153 158.424 565.453 158.597 571.737 159.015C577.107 159.373 579.787 161.578 579.853 166.984C579.951 175.102 579.629 183.271 578.663 191.319C578.45 193.09 574.894 195.577 572.696 195.781C566.253 196.381 559.712 196.154 553.219 195.939C549.361 195.811 547.782 197.121 547.934 201.107C548.168 207.264 548.023 213.438 547.987 219.604C547.955 225.125 545.246 227.932 539.884 227.987C533.111 228.057 526.336 228.127 519.563 228.06C516.52 228.03 515.976 229.767 515.988 232.237C516.019 238.737 516.03 245.237 515.987 251.736C515.95 257.228 513.232 259.975 507.754 259.986C491.422 260.018 475.089 259.993 458.757 259.998C451.957 260 451.879 260.127 451.987 267.062C452.069 272.308 451.898 277.564 452.208 282.794C452.263 283.732 454.096 285.312 455.136 285.335C479.211 285.862 503.29 286.328 527.37 286.547C538.501 286.648 549.64 285.959 560.769 286.113C565.821 286.184 570.923 287.157 575.856 288.334C577.179 288.65 578.715 291.15 578.865 292.768C579.505 299.635 579.683 306.547 579.985 313.444C580.147 317.152 580.99 319.514 585.714 318.411C588.144 317.843 590.928 319.018 593.542 318.958C602.835 318.745 612.127 318.011 621.412 318.123C627.464 318.197 633.536 319.199 639.52 320.241C640.879 320.478 642.692 322.463 642.944 323.883C643.706 328.19 643.92 332.609 644.124 336.995C644.27 340.148 643.878 343.328 644.048 346.479C644.293 351.026 645.635 351.018 650.029 350.484C656.585 349.689 663.361 349.707 669.911 350.49C671.838 350.721 674.442 354.55 674.785 357.002C675.738 363.811 675.72 370.762 675.974 377.661C676.111 381.368 677.161 382.629 681.477 382.297C688.201 381.78 695.066 382.414 701.811 383.125C705.715 383.537 708.392 385.759 708.049 390.495C707.511 397.938 707.062 405.406 707.073 412.863C707.085 420.987 707.857 429.109 707.954 437.235C708.113 450.482 707.994 463.731 707.993 476.979C707.993 485.895 708.121 494.813 707.938 503.724C707.86 507.511 709.002 509.101 713.042 509.099C719.498 509.096 725.956 509.665 732.412 510.027C734.931 510.169 736.939 510.804 737.027 514.006C737.269 522.8 737.971 531.59 737.925 540.379C737.848 555.171 737.207 569.96 737.068 584.752C737.014 590.539 737.532 596.348 738.14 602.11C738.251 603.163 740.02 604.808 741.09 604.863C746.575 605.142 752.172 605.555 757.537 604.706C759.604 604.379 762.576 600.904 762.672 598.753C762.904 593.575 760.861 588.274 761.224 583.128C761.862 574.076 760.523 564.849 761.594 556.167C762.763 546.692 762.455 537.346 762.946 527.958C763.065 525.684 762.243 523.373 762.249 521.08C762.258 517.742 762.653 514.406 762.835 511.067C763.142 505.449 764.632 499.93 762.303 494.229C758.206 484.202 763.312 477.005 774.078 477.005C781.409 477.006 788.741 477.008 796.448 477.411C795.324 478.209 793.831 478.917 792.325 478.948C786.021 479.077 779.708 478.882 773.409 479.09C771.921 479.139 770.47 480.291 769.002 480.936C768.737 481.157 768.472 481.378 767.654 481.896C766.733 484.049 766.046 485.904 766.043 487.761C765.98 525.397 765.905 563.034 766.101 600.67C766.128 605.819 764.461 607.314 759.497 607.1C751.352 606.747 743.181 607.009 735.013 606.541C735.004 575.224 735.004 544.376 735.004 513.091C724.602 513.091 714.841 513.091 705.079 513.091Z" fill="#4682DA"/>
<path d="M482.189 513.254C482.128 522.574 481.905 531.897 482.086 541.213C482.156 544.866 481.199 546.231 477.358 546.076C470.379 545.794 463.363 546.302 456.393 545.922C451.524 545.656 449.564 546.854 449.903 552.159C450.389 559.774 450.027 567.442 450.027 575.666C448.148 575.799 446.566 576.007 444.985 576.009C427.007 576.029 409.029 575.924 391.053 576.089C387.254 576.124 385.662 575.24 385.892 571.12C386.235 564.98 386.018 558.807 386.002 552.648C385.986 546.079 385.967 546.065 379.635 546.055C362.324 546.029 345.012 546.016 327.701 545.998C326.065 545.996 324.429 545.998 321.951 545.998C321.951 535.005 321.951 524.427 321.965 513.406C321.979 512.963 321.911 512.98 322.388 512.975C333.228 512.968 343.592 512.966 353.967 513.436C353.977 522.511 354.128 531.119 353.902 539.716C353.809 543.253 355.013 544.254 358.443 544.169C367.703 543.938 376.971 544.037 386.689 543.979C397.044 543.931 406.945 543.908 416.904 544.28C418.191 545.767 419.342 547.684 420.664 547.809C427.428 548.453 434.241 548.904 441.026 548.787C442.708 548.758 444.349 546.366 446.436 545.048C450.639 545.363 453.518 544.771 453.086 539.86C452.802 536.648 453.336 533.33 452.793 530.182C450.776 518.473 452.651 515.952 464.137 516.029C466.928 516.048 469.742 516.815 472.497 516.606C475.559 516.374 479.313 517.201 481.174 513.092C481.592 512.953 481.758 512.892 481.99 512.936C482.056 513.042 482.189 513.254 482.189 513.254Z" fill="#B8D1E4"/>
<path d="M417.853 864.251C417.853 874.548 417.853 884.844 417.853 895.967C424.343 895.967 430.266 895.966 436.188 895.968C439.185 895.969 442.201 896.183 445.175 895.923C448.816 895.605 450.182 896.769 450.067 900.622C449.802 909.428 449.983 918.246 449.983 927.52C491.982 927.52 533.632 927.52 575.661 927.52C575.661 917.173 575.661 906.957 575.661 896.206C554.949 896.206 534.385 896.206 512.581 896.206C512.581 885.299 512.581 874.908 511.973 863.944C504.096 863.245 496.827 863.104 489.557 862.996C483.866 862.912 483.145 862.093 482.974 856.265C482.845 851.869 482.442 847.481 482.161 843.089C482.129 842.6 482.096 842.11 482.312 841.128C482.436 840.123 482.312 839.609 482.188 839.096C482.151 838.321 482.114 837.547 482.499 836.332C485.25 835.259 487.563 834.154 489.909 834.079C497.383 833.844 504.87 834.083 512.35 833.973C533.921 833.657 555.491 833.26 577.062 832.895C587.079 832.895 597.096 832.895 608.032 832.895C608.032 821.394 608.032 811.21 608.519 800.543C617.907 800.03 626.809 799.976 635.71 799.984C637.934 799.986 640.164 800.195 640.416 796.661C640.783 789.378 640.953 782.414 640.97 775.449C640.979 771.931 642.564 769.308 645.945 769.153C652.221 768.867 658.533 769.213 664.825 769.455C668.943 769.613 670.164 771.856 670.105 776.003C669.86 793.113 669.944 810.229 670.098 827.341C670.112 828.862 671.509 830.371 672.264 831.885C672.264 831.885 672.649 831.887 672.915 832.37C674.695 833.233 676.203 833.909 677.726 833.942C683.546 834.071 689.371 833.97 695.194 834C701.245 834.031 701.986 834.804 701.998 841.02C702.013 848.673 702.002 856.326 702.003 863.979C697.883 864.312 695.905 861.802 696.267 857.449C696.725 851.931 697.035 846.367 696.81 840.848C696.756 839.515 694.468 837.341 693.009 837.162C687.103 836.433 681.123 836.254 675.164 836.023C669.849 835.816 664.911 831.062 665.026 825.8C665.286 814.013 665.805 802.23 665.94 790.443C665.995 785.66 665.629 780.815 664.802 776.113C664.542 774.63 662.23 772.539 660.733 772.43C656.646 772.133 652.493 772.921 648.365 772.941C645.129 772.957 643.895 774.271 643.964 777.448C644.088 783.19 644.034 788.936 643.984 794.679C643.927 801.08 641.387 803.647 634.914 803.991C628.626 804.325 622.342 804.773 616.05 804.951C613.013 805.037 612.03 806.381 611.954 809.26C611.791 815.385 611.613 821.527 610.997 827.617C610.326 834.26 608.18 835.935 601.019 835.973C587.692 836.043 574.364 835.994 561.037 835.994C549.184 835.995 537.328 835.867 525.477 836.034C513.523 836.202 501.573 836.71 489.619 836.962C486.877 837.02 486.036 837.645 486.232 840.769C486.479 844.714 485.202 848.729 485.066 852.73C484.884 858.104 486.809 859.797 492.141 860.024C498.099 860.278 504.052 860.659 510.005 861.01C514.518 861.277 515.78 864.562 515.923 868.178C516.181 874.665 516.192 881.177 515.926 887.664C515.752 891.9 517.428 893.116 521.488 893.072C537.312 892.901 553.139 892.989 568.965 893.012C577.431 893.024 580.117 895.593 579.958 903.942C579.829 910.733 579.468 917.526 578.987 924.302C578.596 929.81 576.204 931.919 570.408 931.969C559.914 932.059 549.418 931.998 538.923 931.998C514.768 931.998 490.612 932.052 466.457 931.951C461.668 931.931 456.776 931.79 452.143 930.756C450.153 930.312 447.533 927.628 447.225 925.647C446.288 919.621 446.206 913.446 446.04 907.322C445.858 900.584 445.397 900.097 438.48 899.972C432.515 899.865 426.543 899.691 420.593 899.273C415.75 898.933 413.746 896.105 413.944 891.208C414.191 885.113 413.866 878.996 414.054 872.897C414.161 869.382 412.503 868.081 409.314 868.006C402.86 867.853 396.407 867.591 389.953 867.579C386.189 867.573 382.391 864.937 382.078 861.203C381.78 857.654 381.571 853.972 382.17 850.495C384.421 837.439 380.908 833.784 367.959 836.153C366.38 836.442 364.748 836.472 363.137 836.55C359.984 836.703 357.941 837.245 358.504 841.495C359.035 845.512 357.166 850.042 358.325 853.727C359.534 857.571 358.906 860.011 356.308 862.37C355.996 854.599 355.987 847.133 356.014 839.668C356.032 834.712 357.99 832.936 362.971 833.212C368.077 833.495 373.183 833.839 378.293 833.972C384.619 834.136 384.881 834.431 385.04 840.829C385.199 847.216 385.605 853.597 385.956 860.401C385.718 864.12 387.934 863.953 390.193 863.966C399.413 864.022 408.633 864.15 417.853 864.251Z" fill="#4482DA"/>
<path d="M769.468 480.993C770.47 480.291 771.921 479.138 773.408 479.089C779.708 478.882 786.021 479.076 792.325 478.948C793.831 478.917 795.324 478.208 796.917 477.417C797.01 477.023 797.007 477.003 797.409 476.914C798.209 475.322 798.952 473.82 798.954 472.316C799.007 434.536 798.983 396.756 798.972 358.976C798.974 357.275 798.976 355.573 798.988 352.976C799 348.252 799.005 344.424 799.005 340.596C799.005 304.982 799.015 269.367 798.981 233.752C798.979 231.406 799.827 228.444 796.003 227.998C795.558 227.996 795.113 227.994 794.038 227.695C787.274 227.585 781.138 227.772 775.003 227.959C771.945 227.919 768.492 228.851 767.042 223.908C766.991 216.706 766.98 210.34 766.97 203.974C767.114 194.067 766.829 196.212 755.167 195.697C749.944 195.596 745.472 195.791 741.001 195.986C739.026 194.902 737.052 193.817 735.038 191.903C735 184.432 735.004 177.791 735.002 171.149C735 163.46 731.621 161.261 724.001 163.984C722.934 163.985 721.867 163.987 720.106 163.693C714.938 163.269 710.464 163.14 705.99 163.011C702.327 162.435 701.802 159.849 702.309 156.106C702.413 151.278 702.214 147.139 702.016 143C702.014 141.61 702.011 140.221 702.288 138.167C703.175 131.59 699.709 129.588 693.001 131.977C692.557 131.979 692.112 131.98 691.187 131.756C690.138 131.684 689.569 131.837 689.001 131.991C674.681 131.987 660.362 131.992 646.043 131.973C640.161 131.966 638.089 130.219 638.048 124.496C637.93 108.263 638.009 92.0283 638.009 75.7941C638.008 68.3862 637.6 67.9873 629.986 67.9857C613.835 67.9823 597.684 68.0003 581.534 67.9734C575.833 67.9639 574.049 66.1976 574.017 60.5921C573.978 53.9322 573.894 47.2693 574.051 40.6129C574.133 37.1266 572.707 35.9454 569.307 35.9512C531.844 36.015 494.381 36.0188 456.918 35.9303C453.259 35.9217 451.836 37.188 451.939 40.8801C452.124 47.535 452.115 54.2032 451.884 60.8553C451.835 62.2467 450.475 63.5925 449.294 64.9406C448.869 54.468 448.869 44.0142 448.869 33.2393C491.826 33.2393 534.193 33.2393 577.008 33.2393C577.008 43.7112 577.008 53.9694 577.008 64.8489C598.48 64.8489 619.518 64.8489 641.026 64.8489C641.026 86.3853 641.026 107.299 641.026 128.692C662.407 128.692 683.32 128.692 704.873 128.692C704.873 139.532 704.873 149.911 704.873 160.751C715.756 160.751 726.01 160.751 736.926 160.751C736.926 171.571 736.926 181.943 736.926 192.781C747.834 192.781 758.089 192.781 768.975 192.781C768.975 203.613 768.975 213.99 768.975 224.828C779.855 224.828 790.11 224.828 800.74 224.828C800.74 310.326 800.74 395.346 800.74 481.05C790.45 481.05 780.191 481.05 769.468 480.993Z" fill="#4C83C6"/>
<path d="M352.998 865.998C352.208 866.659 351.443 867.863 350.625 867.9C340.509 868.354 330.387 868.714 320.263 868.939C313.519 869.088 306.77 868.971 300.024 868.996C297.216 869.007 295.37 869.814 296.538 873.21C296.785 873.927 296.891 875.001 296.529 875.571C292.813 881.427 293.852 887.591 294.848 893.902C295.275 896.61 294.486 899.494 294.413 902.302C294.264 908.036 293.631 913.853 294.392 919.474C294.772 922.281 297.824 924.124 301.616 924.091C322.776 923.908 343.94 924.07 365.101 923.968C372.061 923.935 379.018 923.3 385.978 923.281C388.619 923.274 390.779 923.8 390.359 928.018C389.62 935.443 389.858 942.993 390.098 950.477C390.215 954.15 392.961 955.964 396.506 955.971C424.333 956.022 452.161 955.999 479.988 955.999C500.406 956 520.824 956.002 541.241 956.003C569.902 956.004 598.565 955.776 627.22 956.165C634.435 956.263 636.99 951.359 635.325 944.858C633.844 939.073 635.033 932.505 635.733 926.361C635.847 925.365 639.546 924.115 641.594 924.103C668.587 923.953 695.581 924.005 722.575 924.005C731.35 924.004 734.586 918.458 730.482 910.723C728.65 907.27 727.431 903.639 730.962 900.303C731.411 899.879 731.894 899.141 731.845 898.595C731.227 891.757 735.581 891.743 740.486 891.953C745.809 892.182 751.149 892.028 756.481 891.996C762.458 891.961 763.829 890.378 763.212 884.229C762.81 880.231 762.656 876.164 761.743 872.281C761.382 870.743 759.316 868.542 757.941 868.478C748.532 868.046 739.1 868.075 729.676 868.009C723.011 867.963 716.344 868.073 709.681 867.945C708.174 867.916 706.68 867.191 705.562 866.388C724.202 865.992 742.461 866.062 760.718 865.941C764.46 865.916 766.233 866.964 766.065 871.016C765.825 876.816 765.926 882.634 766.029 888.441C766.101 892.496 764.197 894.103 760.252 894.031C753.947 893.915 747.633 893.882 741.334 894.101C739.888 894.152 738.483 895.369 737.06 896.049C737.06 896.049 737.03 896.011 736.614 896.035C735.466 897.446 734.165 898.81 734.103 900.227C733.86 905.881 734.006 911.552 734.002 917.217C733.996 924.657 732.686 925.999 725.362 926.001C699.038 926.007 672.713 925.966 646.389 926.09C644.602 926.099 642.821 927.328 641.037 927.989C640.782 928.199 640.54 928.425 639.752 928.927C638.794 930.689 638.087 932.185 638.057 933.695C637.928 940.017 637.862 946.348 638.056 952.666C638.171 956.394 637.093 958.058 633.007 958.054C552.783 957.971 472.56 957.973 392.337 958.069C388.658 958.073 387.84 956.699 387.938 953.382C388.135 946.731 388.111 940.065 387.907 933.414C387.862 931.939 386.692 930.498 386.04 929.042C385.81 928.8 385.579 928.559 385.082 927.759C382.979 926.802 381.145 926.062 379.308 926.057C352.33 925.979 325.351 925.947 298.373 926.049C293.847 926.066 291.807 924.81 291.899 919.775C292.187 904.126 291.999 888.468 292.019 872.814C292.027 866.766 292.812 866.003 299.04 865.998C317.026 865.984 335.012 865.996 352.998 865.998Z" fill="#4482DA"/>
<path d="M354.007 735.992C363.335 735.981 372.658 735.861 381.971 736.106C383.337 736.142 385.791 737.882 385.822 738.892C386.115 748.669 385.998 758.46 385.998 768.625C375.32 768.625 365.096 768.625 353.951 768.625C353.951 758.085 353.951 747.518 353.967 736.484C353.982 736.017 353.999 736.001 354.007 735.992Z" fill="#BAD0E2"/>
<path d="M482.099 671.917C472.947 671.962 463.79 671.842 454.646 672.132C450.802 672.254 449.795 670.856 449.907 667.232C450.138 659.751 450.154 652.251 449.9 644.771C449.776 641.098 450.823 639.807 454.639 639.915C463.452 640.166 472.277 639.972 481.542 640.458C482.025 651.277 482.062 661.597 482.099 671.917Z" fill="#B8D1E4"/>
<path d="M482.413 671.993C482.062 661.597 482.024 651.277 482.012 640.491C492.014 639.978 501.992 639.932 512.426 639.818C522.899 639.793 532.916 639.835 543.363 640.285C542.654 641.126 541.528 641.892 540.37 641.942C523.463 642.681 506.553 643.397 489.638 643.939C485.616 644.067 483.726 645.699 484.016 649.697C484.302 653.657 484.836 657.608 484.953 661.572C485.133 667.65 486.033 668.807 492.191 668.975C506.812 669.374 521.435 669.877 536.058 669.921C546.931 669.955 557.804 669.257 568.679 669.058C571.94 668.998 573.086 667.654 573.045 664.512C572.94 656.432 573.014 648.349 573.015 640.268C573.015 632.103 572.937 623.938 573.042 615.774C573.093 611.821 571.507 609.888 567.43 609.975C562.352 610.083 557.269 609.99 552.188 610.003C548.272 610.013 546.525 612.113 546.455 615.911C546.322 623.176 546.196 630.442 545.883 637.701C545.85 638.444 544.57 639.134 543.869 639.849C543.869 629.415 543.869 618.981 543.869 608.246C554.836 608.246 565.062 608.246 575.537 608.246C575.707 609.147 575.983 609.926 575.984 610.705C576.015 630.008 576.024 649.311 576.006 668.615C576.005 669.591 575.732 670.567 574.816 671.797C558.29 672.034 542.533 671.985 526.776 672.011C512.521 672.036 498.266 672.143 484.011 672.214C483.583 672.165 483.155 672.117 482.413 671.993Z" fill="#4E84CB"/>
<path d="M385.98 929.502C386.692 930.498 387.863 931.938 387.908 933.413C388.112 940.065 388.135 946.73 387.938 953.382C387.84 956.698 388.658 958.072 392.337 958.068C472.56 957.972 552.784 957.97 633.007 958.053C637.093 958.057 638.171 956.393 638.056 952.666C637.862 946.347 637.929 940.016 638.057 933.694C638.088 932.184 638.794 930.688 639.588 929.111C640.045 937.189 640.117 945.342 640.159 953.494C640.193 960.072 640.176 960.085 633.798 960.086C566.895 960.099 499.991 960.107 433.088 960.115C418.941 960.117 404.793 959.994 390.65 960.192C386.943 960.243 385.699 959.187 385.812 955.424C386.066 946.944 385.91 938.451 385.98 929.502Z" fill="#5483BA"/>
<path d="M227.04 388.032C227.04 409.031 227.041 430.029 227.028 451.959C227.025 456.605 227.035 460.321 227.046 464.036C227.042 464.768 227.039 465.5 227.024 467.041C227.022 469.911 227.031 471.973 227.041 474.035C227.039 474.464 227.038 474.893 227.056 475.989C228.059 477.427 229.043 478.197 230.027 478.967C231.726 478.968 233.425 478.969 235.93 478.98C237.499 478.982 238.262 478.972 239.026 478.963C240.725 478.966 242.424 478.969 245.009 478.983C247.844 478.997 249.836 478.75 251.729 479.076C253.538 479.387 255.244 480.296 256.996 480.941C246.542 480.941 236.089 480.941 225.283 480.941C225.283 406.309 225.283 331.985 225.283 256.98C235.299 256.98 245.224 256.98 255.624 257.054C255.904 257.658 255.709 258.189 254.8 258.863C247.623 259.004 241.161 259.002 234.699 259.001C226.934 259.001 226.934 259.001 227.044 267.036C227.041 268.731 227.037 270.425 227.021 273.014C227.023 284.619 227.036 295.328 227.049 306.037C227.047 307.73 227.044 309.423 227.028 312.011C227.023 320.615 227.032 328.324 227.041 336.033C227.04 347.033 227.038 358.032 227.024 369.97C227.021 376.616 227.031 382.324 227.04 388.032Z" fill="#4C83C6"/>
<path d="M735.021 607.011C743.181 607.009 751.352 606.747 759.497 607.1C764.461 607.314 766.128 605.819 766.101 600.67C765.905 563.034 765.98 525.398 766.043 487.761C766.046 485.904 766.733 484.049 767.488 482.095C767.949 520.77 768.022 559.543 768.093 598.316C768.1 601.625 768.094 604.933 768.094 608.791C757.193 608.791 746.613 608.791 735.377 608.791C735.377 619.687 735.377 630.054 735.377 641.1C724.8 641.1 714.87 641.1 704.471 641.107C703.976 640.924 703.949 640.736 703.924 639.807C703.965 628.717 704.004 618.369 704.043 608.02C704.043 608.02 704.525 607.92 705.226 607.922C711.07 607.949 716.218 608.11 721.356 607.957C725.916 607.822 730.466 607.34 735.021 607.011ZM713.529 639.561C718.779 639.353 724.073 639.452 729.253 638.736C730.672 638.54 732.737 635.953 732.821 634.373C733.207 627.081 732.933 619.755 733.04 612.444C733.077 609.839 732.031 608.927 729.495 608.967C723.015 609.067 716.532 609.014 710.05 609C706.493 608.992 704.966 610.817 704.99 614.281C705.036 620.763 704.71 627.266 705.184 633.714C705.318 635.552 707.675 637.227 709.811 638.994C710.875 638.991 711.939 638.988 713.529 639.561Z" fill="#5483BA"/>
<path d="M315.784 510.052C319.06 510.396 320.068 509.108 320.061 506.052C319.978 467.916 320.025 429.78 319.981 391.644C319.975 386.134 318.704 385.06 313.116 384.991C306.301 384.907 299.487 384.791 292.811 384.373C302.568 384.065 312.187 384.073 321.884 384.539C321.946 427.658 321.928 470.319 321.911 512.981C321.911 512.981 321.978 512.964 321.963 512.932C311.637 512.97 301.327 513.04 290.557 513.157C279.731 513.129 269.365 513.054 258.538 512.945C257.994 502.623 257.912 492.334 258.178 481.704C259.016 483.011 259.89 484.65 259.931 486.31C260.096 492.937 260.26 499.583 259.917 506.196C259.673 510.915 261.491 512.249 265.981 512.086C274.093 511.791 282.224 512.046 290.345 511.943C291.9 511.924 293.447 511.315 294.998 510.979C298.026 510.979 301.054 510.98 304.983 510.991C308.924 510.695 311.964 510.388 315.005 510.081C315.178 510.075 315.351 510.069 315.784 510.052Z" fill="#5483BA"/>
<path d="M353.016 865.669C335.012 865.996 317.026 865.984 299.041 865.998C292.812 866.003 292.027 866.766 292.019 872.814C291.999 888.468 292.188 904.125 291.9 919.775C291.807 924.81 293.847 926.066 298.373 926.049C325.351 925.947 352.33 925.979 379.308 926.056C381.145 926.061 382.98 926.802 384.89 927.599C354.687 928.034 324.411 928.066 294.134 928.117C291.833 928.121 289.866 928.135 289.887 924.852C290.012 905.057 290.019 885.263 290.084 865.468C290.085 865.171 290.319 864.874 290.745 863.865C311.007 863.865 331.567 863.865 352.599 863.945C353.058 864.463 353.046 864.901 353.016 865.669Z" fill="#5483BA"/>
<path d="M448.46 64.8848C449.311 68.8659 446.348 67.9534 444.215 67.9594C427.579 68.0058 410.94 68.1764 394.31 67.878C389.136 67.7852 387.813 69.5454 387.891 74.481C388.154 91.1124 388.048 107.751 387.886 124.385C387.871 125.915 386.458 127.431 385.267 128.924C384.84 107.808 384.84 86.7211 384.84 64.9009C406.231 64.9009 427.114 64.9009 448.46 64.8848Z" fill="#4C83C6"/>
<path d="M384.441 128.854C382.806 129.885 380.724 131.805 378.613 131.839C362.482 132.095 346.344 132.134 330.213 131.892C325.475 131.821 323.609 133.171 323.907 138.084C324.269 144.049 324.146 150.062 323.873 156.038C323.797 157.688 322.438 159.279 321.261 160.906C320.854 150.484 320.854 140.053 320.854 128.871C342.262 128.871 363.121 128.871 384.441 128.854Z" fill="#4C83C6"/>
<path d="M641.5 928.045C642.822 927.328 644.602 926.099 646.389 926.09C672.713 925.966 699.038 926.007 725.363 926.001C732.686 925.999 733.997 924.657 734.002 917.217C734.006 911.552 733.861 905.882 734.104 900.227C734.165 898.81 735.467 897.447 736.613 896.059C736.715 902.484 736.192 908.907 736.133 915.335C736.015 928.082 736.121 928.097 723.402 928.101C696.255 928.11 669.109 928.102 641.5 928.045Z" fill="#5483BA"/>
<path d="M737.52 896.094C738.482 895.368 739.887 894.151 741.333 894.101C747.632 893.881 753.946 893.914 760.251 894.03C764.196 894.102 766.1 892.495 766.028 888.441C765.925 882.633 765.824 876.815 766.064 871.015C766.232 866.963 764.458 865.915 760.717 865.94C742.46 866.061 724.201 865.991 705.475 865.989C704.731 865.456 704.454 864.924 704.141 864.09C725.195 863.789 746.286 863.789 768.099 863.789C768.099 874.104 768.192 884.008 767.918 893.902C767.896 894.679 765.326 895.993 763.916 896.026C755.275 896.229 746.627 896.135 737.52 896.094Z" fill="#5483BA"/>
<path d="M294.725 510.694C293.447 511.315 291.9 511.923 290.345 511.943C282.224 512.046 274.093 511.791 265.981 512.086C261.491 512.249 259.673 510.915 259.917 506.196C260.26 499.583 260.096 492.937 259.931 486.31C259.89 484.65 259.016 483.011 258.136 481.245C257.747 481.128 257.351 481.117 257.173 481.029C255.244 480.295 253.538 479.387 251.729 479.076C249.836 478.75 247.844 478.997 245.434 478.98C246.855 477.086 256.081 475.592 258.642 477.637C260.456 479.086 261.448 482.121 261.899 484.613C263.207 491.839 263.881 499.183 265.275 506.39C265.491 507.506 268.131 508.763 269.739 508.899C277.961 509.593 286.212 509.94 294.725 510.694Z" fill="#4682DA"/>
<path d="M672.211 831.429C671.51 830.371 670.112 828.863 670.098 827.341C669.944 810.229 669.861 793.113 670.105 776.004C670.165 771.856 668.943 769.614 664.825 769.455C658.534 769.213 652.221 768.867 645.945 769.154C642.564 769.308 640.979 771.932 640.97 775.45C640.954 782.414 640.784 789.378 640.366 796.197C640.064 786.718 640.073 777.384 640.082 768.05C640.082 768.05 640.011 768.008 640.493 768.031C650.65 767.934 660.324 767.815 669.997 767.696C670.444 767.772 670.891 767.848 671.676 767.956C672.062 788.982 672.109 809.977 672.211 831.429Z" fill="#5483BA"/>
<path d="M320.45 160.877C319.854 161.899 318.835 163.797 317.734 163.846C311.181 164.133 304.598 164.215 298.045 163.918C293.631 163.718 291.48 164.9 291.934 169.725C292.476 175.473 292.697 181.257 292.889 187.031C292.972 189.514 293.921 192.714 289.275 192.945C288.865 182.5 288.865 172.083 288.865 160.899C299.567 160.899 309.778 160.899 320.45 160.877Z" fill="#4C83C6"/>
<path d="M259.044 250.035C258.649 251.987 258.254 253.939 257.491 255.993C257.123 235.304 257.123 214.514 257.123 192.895C267.509 192.895 277.755 192.895 288.463 192.879C287.72 193.581 286.542 194.854 285.301 194.919C280.535 195.169 275.749 195.031 270.051 195.025C267.151 195.009 265.062 194.614 263.222 195.12C261.675 195.546 260.417 197.02 259.031 198.03C259.032 199.725 259.033 201.421 259.022 203.947C259.02 205.863 259.03 206.949 259.039 208.034C259.038 220.7 259.036 233.367 259.023 246.883C259.022 248.5 259.033 249.267 259.044 250.035Z" fill="#4C83C6"/>
<path d="M484.338 672.455C498.265 672.143 512.52 672.035 526.775 672.011C542.532 671.985 558.289 672.034 574.509 672.1C573.49 672.767 572.019 673.881 570.522 673.918C563.075 674.102 555.622 674.003 548.172 674.002C536.747 674 525.323 673.998 513.456 673.998C503.565 673.565 494.115 673.13 484.338 672.455Z" fill="#A7CEFA"/>
<path d="M482.894 735.828C472.868 735.897 462.842 735.965 452.35 736.142C451.259 735.612 450.101 734.979 450.093 734.332C449.978 724.416 450.013 714.497 450.013 703.897C470.299 703.897 490.144 703.897 510.45 703.873C512.297 703.92 513.683 703.99 515.18 704.377C513.478 704.798 511.666 704.993 509.853 704.996C493.578 705.02 477.303 704.898 461.031 705.104C457.732 705.146 453.51 704.307 452.043 709.52C452.039 716.305 452.041 722.627 452.028 729.376C451.543 733.575 453.026 735.352 456.994 735.031C459.607 734.819 462.255 734.911 464.881 735.009C470.887 735.236 476.89 735.55 482.894 735.828Z" fill="#5483BA"/>
<path d="M576.768 832.591C555.49 833.26 533.92 833.657 512.349 833.973C504.869 834.083 497.382 833.843 489.907 834.079C487.562 834.153 485.248 835.259 482.549 835.946C482.106 834.935 482.035 833.87 481.984 832.405C501.998 831.97 521.991 831.935 542.444 831.871C554.094 831.99 565.285 832.138 576.768 832.591Z" fill="#5483BA"/>
<path d="M385.903 859.98C385.605 853.597 385.199 847.216 385.04 840.83C384.88 834.431 384.619 834.136 378.293 833.972C373.182 833.839 368.077 833.496 362.971 833.212C357.99 832.936 356.031 834.712 356.013 839.668C355.986 847.133 355.996 854.599 355.997 862.533C355.459 863.322 354.914 863.642 354.034 863.93C353.775 854.913 353.795 845.926 353.976 836.942C354.01 835.266 354.69 833.604 355.786 831.914C356.696 831.848 356.892 831.802 357.088 831.757C357.787 831.774 358.485 831.791 359.532 831.788C368.445 831.987 377.011 832.207 385.831 833.188C386.025 842.626 385.964 851.303 385.903 859.98Z" fill="#5483BA"/>
<path d="M702.372 863.99C702.002 856.326 702.013 848.673 701.998 841.02C701.986 834.804 701.245 834.031 695.194 834C689.371 833.971 683.546 834.071 677.726 833.943C676.203 833.909 674.695 833.233 673.084 832.462C683.109 832.07 693.23 832.07 704.162 832.07C704.162 842.453 704.162 852.696 704.185 863.393C703.719 863.898 703.229 863.95 702.372 863.99Z" fill="#5483BA"/>
<path d="M483.974 480.105C484.13 489.447 484.307 498.79 484.42 508.133C484.435 509.434 484.138 510.739 483.979 512.465C483.572 512.955 483.172 513.022 482.48 513.171C482.188 513.254 482.055 513.042 482.019 512.484C481.958 501.953 481.934 491.98 481.95 481.692C481.986 480.954 481.98 480.531 482.306 480.068C483.084 480.053 483.529 480.079 483.974 480.105Z" fill="#A7CEFA"/>
<path d="M356.967 831.616C356.892 831.802 356.696 831.848 356.207 831.821C356.225 831.657 356.536 831.566 356.967 831.616Z" fill="#B5D0E8"/>
<path d="M796.055 228.414C799.827 228.444 798.979 231.406 798.981 233.752C799.015 269.367 799.005 304.982 799.005 340.596C799.005 344.424 799.001 348.252 798.986 352.55C798.319 351.217 797.097 349.415 797.092 347.61C796.98 310.302 797.022 272.995 796.967 235.687C796.964 233.401 796.406 231.116 796.055 228.414Z" fill="#4482DA"/>
<path d="M798.579 359.077C798.982 396.757 799.006 434.537 798.953 472.317C798.951 473.82 798.208 475.323 797.415 476.918C797.015 439.401 796.996 401.793 797.057 364.184C797.06 362.515 797.794 360.846 798.579 359.077Z" fill="#4482DA"/>
<path d="M724.258 164.269C731.621 161.261 735 163.46 735.002 171.149C735.004 177.791 735 184.432 734.991 191.544C734.324 190.731 733.165 189.475 733.095 188.161C732.857 183.718 733.006 179.253 733.005 174.797C733.001 165.836 733 165.836 724.258 164.269Z" fill="#4482DA"/>
<path d="M227.419 266.941C226.934 259.001 226.934 259 234.698 259.001C241.161 259.002 247.623 259.004 254.557 259.019C253.582 259.687 252.149 260.863 250.685 260.905C243.674 261.103 236.655 260.994 229.913 260.994C229.058 263.355 228.426 265.1 227.419 266.941Z" fill="#4682DA"/>
<path d="M227.44 305.931C227.037 295.328 227.024 284.619 227.026 273.438C227.687 273.772 228.886 274.573 228.895 275.387C229.006 285.02 228.957 294.656 228.874 304.29C228.869 304.805 228.193 305.313 227.44 305.931Z" fill="#4682DA"/>
<path d="M227.433 335.929C227.033 328.324 227.024 320.615 227.033 312.434C227.694 312.771 228.876 313.571 228.893 314.393C229.025 321.025 228.962 327.662 228.871 334.297C228.864 334.811 228.188 335.316 227.433 335.929Z" fill="#4682DA"/>
<path d="M766.578 204.075C766.98 210.34 766.991 216.706 766.995 223.541C766.532 223.827 765.675 223.637 765.678 223.462C765.797 217.033 765.997 210.604 766.578 204.075Z" fill="#4482DA"/>
<path d="M775.289 228.265C781.137 227.772 787.272 227.585 793.703 227.692C787.858 228.181 781.717 228.375 775.289 228.265Z" fill="#4482DA"/>
<path d="M227.43 387.929C227.03 382.325 227.021 376.617 227.029 370.437C227.497 370.16 228.346 370.362 228.342 370.546C228.219 376.307 228.014 382.066 227.43 387.929Z" fill="#4682DA"/>
<path d="M693.244 132.259C699.708 129.588 703.174 131.59 702.29 137.75C699.901 135.04 697.628 132.332 693.244 132.259Z" fill="#4482DA"/>
<path d="M706.084 163.404C710.464 163.14 714.938 163.269 719.706 163.689C715.393 163.919 710.785 163.858 706.084 163.404Z" fill="#4482DA"/>
<path d="M741.289 196.284C745.471 195.791 749.942 195.596 754.706 195.693C750.526 196.184 746.052 196.382 741.289 196.284Z" fill="#4482DA"/>
<path d="M701.718 143.287C702.214 147.139 702.413 151.278 702.32 155.707C701.826 151.856 701.623 147.715 701.718 143.287Z" fill="#4482DA"/>
<path d="M260.02 321.924C260.02 321.924 260.01 321.45 260.006 321.213C262.366 320.976 264.729 320.976 267.534 320.972C273.77 321.088 279.563 321.209 285.21 321.653C276.715 321.958 268.368 321.941 260.02 321.924Z" fill="#4C83C6"/>
<path d="M227.433 463.933C227.036 460.32 227.026 456.605 227.035 452.425C230.661 455.701 229.319 459.76 227.433 463.933Z" fill="#4682DA"/>
<path d="M259.434 197.969C260.418 197.02 261.676 195.545 263.223 195.12C265.063 194.614 267.151 195.009 269.586 195.031C268.741 195.697 267.503 196.586 266.128 196.937C264.081 197.46 261.938 197.603 259.434 197.969Z" fill="#4682DA"/>
<path d="M314.734 509.772C311.964 510.388 308.923 510.695 305.436 510.982C307.613 507.086 311.231 509.491 314.734 509.772Z" fill="#4682DA"/>
<path d="M227.412 473.944C227.032 471.973 227.022 469.911 227.028 467.407C230.241 468.945 229.516 471.345 227.412 473.944Z" fill="#4682DA"/>
<path d="M259.38 207.962C259.029 206.949 259.02 205.864 259.027 204.371C261.722 204.849 261.638 206.211 259.38 207.962Z" fill="#4682DA"/>
<path d="M229.985 478.632C229.044 478.197 228.06 477.427 227.057 476.311C228.006 476.742 228.974 477.519 229.985 478.632Z" fill="#4682DA"/>
<path d="M238.968 478.635C238.263 478.973 237.5 478.982 236.355 478.977C236.952 478.743 237.931 478.525 238.968 478.635Z" fill="#4682DA"/>
<path d="M259.372 249.974C259.034 249.268 259.023 248.5 259.028 247.35C259.263 247.948 259.482 248.93 259.372 249.974Z" fill="#4682DA"/>
<path d="M689.146 132.218C689.569 131.838 690.138 131.684 690.853 131.753C690.431 132.132 689.862 132.289 689.146 132.218Z" fill="#4482DA"/>
<path d="M484.444 480.057C483.529 480.079 483.084 480.054 481.844 479.983C449.367 479.96 417.685 479.981 385.535 479.979C374.858 479.957 364.649 479.957 353.963 479.957C353.963 491.477 353.963 502.217 353.973 512.964C353.983 512.972 353.955 512.965 353.955 512.965C343.591 512.967 333.227 512.969 322.387 512.976C321.929 470.32 321.946 427.658 321.947 384.204C321.911 382.957 321.892 382.502 321.927 381.575C322.022 372.749 322.064 364.394 322.313 355.868C322.726 355.213 322.932 354.729 323.44 354.201C324.149 354.154 324.556 354.151 325.294 354.394C334.4 354.449 343.174 354.258 352.372 353.995C353.246 352.465 354.067 351.011 354.085 349.547C354.196 340.719 354.123 331.889 354.112 323.059C354.112 323.059 354.044 323.011 354.262 322.922C354.735 322.612 354.939 322.351 355.092 322.05C355.092 322.05 355.014 322.033 355.492 322.114C365.849 322.196 375.727 322.196 386.1 322.196C386.1 313.222 386.1 305.12 386.343 296.717C386.735 294.295 386.883 292.174 387.498 290.049C408.015 290.002 428.066 289.957 448.117 289.913C456.419 289.965 464.722 290.017 473.765 290.329C476.354 290.442 478.202 290.294 480.051 290.147C480.455 290.153 480.86 290.158 481.562 290.225C481.86 300.582 481.86 310.877 481.86 321.705C484.104 321.821 485.864 321.988 487.623 321.99C504.768 322.014 521.914 322.125 539.056 321.926C543.034 321.879 544.222 323.084 544.102 327.014C543.836 335.782 544.019 344.564 544.019 354.004C546.381 354.004 548.153 354.004 549.925 354.004C567.57 354.008 585.214 354.091 602.857 353.953C606.493 353.925 608.154 354.549 608.125 358.798C607.929 386.927 607.955 415.059 608.077 443.189C608.092 446.821 607.178 448.173 603.342 448.057C594.542 447.792 585.729 447.973 575.953 447.973C575.953 458.224 575.953 468.124 575.464 478.511C569.87 479.009 564.762 478.912 559.661 479.066C554.795 479.213 549.936 479.623 544.844 479.971C544.614 480.024 544.165 480.169 544.165 480.169C524.414 480.115 504.663 480.062 484.444 480.057Z" fill="#FEFFFE"/>
<path d="M582.999 582C576.941 581.529 572.29 576.36 571.917 570.409C571.663 566.356 570.977 562.249 569.829 558.359C568.932 555.323 565.558 554.95 563.819 557.651C561.719 560.913 559.215 561.441 555.738 560.482C553.864 559.965 551.755 560.342 549.838 559.923C548.56 559.645 547.433 558.676 546.238 558.015C547.174 557.056 547.945 555.579 549.072 555.221C558.055 552.365 567.105 549.721 576.553 547.473C576.97 557.136 576.97 566.339 576.97 575.982C587.874 575.982 597.947 575.982 608.003 576.452C607.986 587.16 607.986 597.398 607.986 607.988C628.833 607.988 648.786 607.942 668.739 608.029C672.496 608.045 672.001 605.607 672.003 603.309C672.013 585.666 672.021 568.024 672 550.382C671.999 549.102 671.762 547.822 671.582 546.016C661.218 546.016 651.11 546.016 641.218 545.743C645.991 543.259 647.144 538.933 646.258 534.111C645.413 529.52 645.671 524.545 646.527 519.94C646.765 518.661 650.792 517.679 653.192 517.33C655.383 517.012 657.724 517.736 659.999 518C661.391 518.348 662.765 518.802 664.175 519.024C670.848 520.072 671.812 521.895 669.333 528.149C668.729 529.674 668.988 531.541 668.763 534.32C666.294 535.361 662.769 536.848 659.244 538.334C659.233 538.7 659.222 539.066 659.21 539.432C661.485 539.965 663.749 540.551 666.037 541.02C674.453 542.745 678.615 546.154 678.138 555.37C677.306 571.463 677.374 587.601 676.977 603.718C676.819 610.146 672.681 614.101 666.148 613.956C660.854 613.839 655.534 612.781 650.288 613.115C639.168 613.822 627.91 612.377 616.919 615.718C611.687 617.308 604.618 611.619 603.076 605.543C602.823 604.546 602.612 603.537 601.561 602.536C601.377 603.243 601.38 604.093 600.972 604.63C599.831 606.131 598.52 607.503 597.276 608.926C596.19 607.52 594.561 606.26 594.138 604.677C593.377 601.836 593.341 598.801 593.147 595.093C593.845 593.141 594.492 591.977 594.933 590.74C597.174 584.45 594.57 580.875 587.773 581.044C586.175 581.084 584.59 581.667 582.999 582Z" fill="#B8D1E4"/>
<path d="M608.02 575.982C597.947 575.982 587.874 575.982 576.971 575.982C576.971 566.339 576.971 557.136 576.932 547.465C576.827 546.378 576.76 545.76 576.639 544.363C576.55 535.421 576.514 527.259 576.617 518.897C576.885 518.36 576.834 518.052 576.627 517.386C576.713 515.965 576.775 514.931 577.082 513.852C577.635 513.659 577.877 513.439 578.518 513.127C588.561 513.106 598.139 513.106 608.12 513.106C608.12 523.907 608.12 533.886 608.08 544.34C608.02 555.218 607.999 565.621 607.988 576.012C607.997 576.001 608.02 575.982 608.02 575.982Z" fill="#F9FEFE"/>
<path d="M576.478 519.096C576.514 527.259 576.549 535.421 576.451 543.934C575.967 544.208 575.617 544.133 574.626 544.048C564.328 544.121 554.671 544.204 545.014 544.288C544.852 544.231 544.69 544.175 544.275 543.585C543.994 522.708 543.966 502.365 543.939 482.022C544.001 481.611 544.063 481.201 544.145 480.479C544.164 480.169 544.613 480.024 545.298 480.043C587.988 480.025 629.995 479.988 672.001 479.95C672.036 480.129 672.07 480.307 672.089 481.212C672.073 492.167 672.073 502.395 672.073 512.876C661.188 512.876 651.084 512.876 641.086 512.494C642.216 511.742 643.222 511.11 644.263 511.046C651.038 510.632 657.819 510.215 664.604 510.066C667.792 509.996 669.125 508.803 669.04 505.598C668.911 500.776 669.012 495.948 669.01 491.122C669.008 484.181 667.611 482.659 660.606 482.033C659.615 481.944 658.61 481.992 657.612 482.006C634.524 482.33 611.436 482.704 588.346 482.965C577.449 483.089 566.548 482.93 555.651 483.054C553.377 483.08 551.029 483.551 548.876 484.287C547.832 484.644 546.547 486.02 546.432 487.053C546.036 490.608 546.028 494.215 546.018 497.802C545.986 510.057 545.995 522.313 546.034 534.568C546.048 539.126 548.44 542.107 551.703 541.9C556.819 541.575 561.936 541.093 567.054 541.071C571.28 541.054 573.15 539.384 573.039 535.113C572.892 529.459 572.979 523.798 573.026 518.141C573.048 515.513 573.413 513.033 576.899 512.893C576.924 512.918 576.975 512.968 576.893 513.193C576.811 513.418 576.836 513.897 576.836 513.897C576.774 514.931 576.712 515.965 576.486 517.586C576.187 518.513 576.239 518.82 576.478 519.096Z" fill="#4E84CB"/>
<path d="M452.049 709.058C453.509 704.307 457.731 705.146 461.031 705.104C477.303 704.898 493.578 705.02 509.853 704.996C511.666 704.993 513.478 704.798 515.593 704.429C535.675 704.166 555.455 704.166 575.65 704.166C575.65 714.624 575.65 724.977 575.65 735.949C544.954 735.949 514.401 735.949 483.372 735.889C476.89 735.55 470.887 735.236 464.881 735.009C462.255 734.911 459.607 734.819 456.994 735.031C453.026 735.352 451.543 733.575 452.384 729.459C455.569 730.41 458.337 732.695 461.207 732.832C475.798 733.528 490.415 733.894 505.024 733.929C516.802 733.957 528.58 733.249 540.361 733.055C549.931 732.897 559.506 732.977 569.078 733.034C572.192 733.053 573.083 731.44 573.037 728.633C572.975 724.808 572.71 720.924 573.238 717.165C574.407 708.842 572.234 705.936 563.841 706.022C537.08 706.299 510.319 706.637 483.559 707.035C478.771 707.106 473.988 707.56 469.205 707.873C463.485 708.247 457.767 708.661 452.049 709.058Z" fill="#4E84CB"/>
<path d="M735.012 606.541C730.466 607.34 725.916 607.822 721.355 607.957C716.217 608.109 711.07 607.948 705.462 607.853C707.62 606.855 710.185 605.432 712.88 605.118C716.818 604.66 720.854 605.113 724.84 604.968C730.251 604.771 733.024 601.064 732.499 595.761C732.213 592.874 732.943 589.902 732.967 586.966C733.04 577.652 733.04 568.337 732.987 559.023C732.911 545.538 732.863 532.05 732.476 518.573C732.442 517.368 730.101 515.354 728.678 515.209C721.018 514.426 713.309 514.114 705.348 513.366C714.84 513.091 724.602 513.091 735.004 513.091C735.004 544.375 735.004 575.223 735.012 606.541Z" fill="#A7CEFA"/>
<path d="M671.92 479.577C629.995 479.987 587.988 480.025 545.527 479.989C549.935 479.622 554.794 479.213 559.66 479.066C564.761 478.911 569.869 479.009 575.431 478.975C579.782 478.304 583.672 477.118 587.571 477.091C612.209 476.918 636.85 476.917 661.488 477.1C664.943 477.125 668.389 478.469 671.92 479.577Z" fill="#A7CEFA"/>
<path d="M583.035 582.348C584.591 581.667 586.175 581.083 587.774 581.044C594.57 580.875 597.175 584.45 594.933 590.739C594.492 591.977 593.845 593.141 593.146 594.669C587.181 593.434 585.298 597.68 583.477 602.922C578.736 595.035 571.11 599.087 565.376 596.742C565.162 596.217 564.948 595.692 564.734 595.166C567.204 593.779 569.573 591.481 572.164 591.194C577.666 590.586 579.218 590.49 584.794 586.48C584.239 585.262 583.654 583.978 583.035 582.348Z" fill="#B6D0E6"/>
<path d="M660.001 517.747C657.725 517.735 655.383 517.012 653.193 517.33C650.793 517.679 646.765 518.661 646.528 519.939C645.672 524.544 645.414 529.52 646.258 534.111C647.145 538.932 645.992 543.258 640.986 545.918C640.357 546.912 640.176 547.457 639.629 548.045C637.475 549.042 635.646 550.871 633.903 550.792C627.638 550.509 621.395 549.638 615.165 548.824C614.378 548.721 613.721 547.63 613.432 546.994C619.527 546.821 625.444 545.577 630.783 546.817C635.131 547.827 637.513 547.032 639.977 544.017C639.984 543.984 640.052 543.982 640.347 543.737C641.095 541.595 641.876 539.71 641.94 537.8C642.118 532.483 642.303 527.133 641.904 521.84C641.545 517.092 644.281 515.224 647.978 515.185C651.979 515.143 655.994 516.335 660.003 516.988C660.003 517.157 660.002 517.326 660.001 517.747Z" fill="#B5D0E8"/>
<path d="M660.459 516.99C655.994 516.335 651.979 515.143 647.977 515.185C644.28 515.224 641.545 517.093 641.903 521.841C642.303 527.134 642.117 532.484 641.94 537.801C641.876 539.71 641.095 541.596 640.347 543.271C640.068 533.047 640.084 523.044 640.322 513.011C640.544 512.98 640.98 512.876 640.98 512.876C651.084 512.876 661.189 512.876 672.074 512.876C672.074 502.395 672.074 492.167 672.151 481.478C672.819 482.533 673.882 484.038 673.919 485.568C674.099 492.885 674.01 500.208 674 507.528C673.99 515.635 672.606 516.993 664.409 516.991C663.244 516.991 662.08 516.991 660.459 516.99Z" fill="#A7CEFA"/>
<path d="M586.478 672.683C581.861 673.837 581.038 670.726 581.178 667.948C581.578 660.052 582.474 652.18 583.209 644.301C583.229 644.079 583.633 643.893 584.062 643.506C585.344 649.653 586.604 655.701 588.07 662.735C590.186 660.897 591.236 659.985 593.031 658.426C593.705 660.398 594.896 662.05 594.61 663.385C593.687 667.68 592.469 672.075 586.478 672.683Z" fill="#B8D1E4"/>
<path d="M592.229 626.868C591.63 631.42 591.164 635.586 590.665 640.047C586.188 637.377 586.992 626.498 591.607 616.681C595.354 617.129 599.069 617.281 602.618 618.131C604.24 618.519 605.533 620.283 606.976 621.423C605.499 622.611 604.095 624.645 602.528 624.779C600.496 624.953 598.336 623.614 595.461 622.674C594.775 623.517 593.568 625 592.229 626.868Z" fill="#B8D1E4"/>
<path d="M639.681 768.082C640.072 777.384 640.063 786.718 640.105 796.517C640.164 800.195 637.934 799.986 635.71 799.984C626.809 799.977 617.907 800.031 608.547 800.082C610.937 799.071 613.728 797.423 616.65 797.142C621.764 796.651 626.959 797.063 632.119 796.974C636.036 796.906 638.374 795.276 638.029 790.852C637.566 784.912 637.156 778.955 637.12 773.003C637.11 771.378 638.521 769.744 639.681 768.082Z" fill="#A7CEFA"/>
<path d="M543.549 482.11C543.968 502.365 543.995 522.708 544.027 543.518C543.356 542.876 542.095 541.771 542.088 540.658C541.971 522.017 541.995 503.376 542.063 484.735C542.066 483.888 542.777 483.044 543.549 482.11Z" fill="#A7CEFA"/>
<path d="M585.725 610.562C588.167 617.308 587.43 623.517 583.677 625.93C581.276 621.202 581.2 616.183 581.55 611.264C581.7 609.15 583.555 608.231 585.725 610.562Z" fill="#B8D1E4"/>
<path d="M669.906 767.352C660.324 767.815 650.65 767.934 640.512 768.067C640.962 767.39 641.839 766.16 642.797 766.093C649.864 765.599 656.945 765.179 664.026 765.107C665.949 765.087 667.885 766.339 669.906 767.352Z" fill="#A7CEFA"/>
<path d="M703.641 608.1C704.004 618.368 703.965 628.717 703.856 639.529C702.913 637.559 701.331 635.133 701.302 632.689C701.213 625.336 701.692 617.974 702.058 610.621C702.099 609.79 702.829 608.993 703.641 608.1Z" fill="#A7CEFA"/>
<path d="M545.131 544.654C554.672 544.204 564.329 544.12 574.441 544.08C574.381 544.512 573.865 545.24 573.351 545.239C563.983 545.218 554.615 545.11 545.131 544.654Z" fill="#A7CEFA"/>
<path d="M639.467 620.014C641.505 619.647 643.489 619.647 645.473 619.647C645.363 620.476 645.253 621.304 645.142 622.132C643.232 621.548 641.323 620.965 639.467 620.014Z" fill="#B8D1E4"/>
<path d="M652.967 619.375C655.294 619.156 657.317 619.156 659.339 619.156C659.281 619.826 659.222 620.496 659.164 621.165C656.996 620.641 654.829 620.118 652.967 619.375Z" fill="#B8D1E4"/>
<path d="M385.955 860.401C385.963 851.303 386.024 842.626 386.143 833.486C387.133 835.953 388.553 838.83 388.879 841.826C389.342 846.072 389.001 850.406 388.999 854.703C388.998 857.873 389.782 860.047 393.712 860.091C399.786 860.158 405.872 860.504 411.916 861.102C413.95 861.303 415.872 862.634 417.849 863.85C408.632 864.15 399.412 864.022 390.192 863.966C387.933 863.953 385.717 864.12 385.955 860.401Z" fill="#A7CEFA"/>
<path d="M482.1 843.546C482.441 847.481 482.844 851.869 482.973 856.265C483.144 862.093 483.865 862.912 489.555 862.996C496.825 863.104 504.095 863.245 511.651 863.666C503.167 863.996 494.396 863.955 485.629 864.113C482.83 864.164 481.814 863.187 481.906 860.384C482.086 854.928 482.01 849.463 482.1 843.546Z" fill="#4C83C6"/>
<path d="M482.13 839.394C482.313 839.61 482.436 840.123 482.366 840.763C482.138 840.49 482.105 840.09 482.13 839.394Z" fill="#5483BA"/>
<path d="M448.088 289.658C428.065 289.957 408.014 290.001 387.656 289.693C387.899 287.164 388.911 284.991 388.926 282.811C389.056 264.971 388.999 247.13 388.999 228.995C397.677 228.995 405.315 228.992 412.954 228.998C414.971 229 417.186 229.316 417.255 225.961C417.731 225.131 417.956 224.514 418.635 223.927C427.349 223.976 435.612 223.877 443.868 224.074C447.172 224.152 448.11 222.933 448.058 219.749C447.928 211.824 448.123 203.894 448.621 195.973C453.843 196.318 458.631 196.93 463.422 196.95C487.25 197.053 511.081 197.122 534.908 196.9C539.828 196.854 541.434 198.492 541.075 203.237C540.761 207.375 540.33 211.744 541.299 215.678C542.527 220.662 540.374 221.111 536.562 221.029C531.565 220.921 526.51 220.559 521.585 221.165C518.392 221.558 514.214 220.035 512.127 224.217C512.127 224.217 512.071 224.636 511.63 224.893C510.462 227.046 509.123 228.943 509.124 230.839C509.125 236.287 509.506 241.751 510.048 247.178C510.492 251.624 509.155 253.211 504.37 253.123C487.739 252.817 471.097 252.894 454.465 253.14C452.32 253.172 450.203 255.052 448.072 256.076C448.072 256.076 447.998 256.003 447.629 256.095C446.849 256.83 446.084 257.469 446.078 258.114C445.994 267.326 445.952 276.54 446.091 285.751C446.107 286.814 447.277 287.859 447.912 288.912C447.961 289.076 448.01 289.239 448.088 289.658Z" fill="#B6D0E6"/>
<path d="M512.582 224.171C514.215 220.035 518.392 221.558 521.585 221.165C526.51 220.559 531.566 220.921 536.562 221.029C540.374 221.111 542.527 220.662 541.3 215.679C540.331 211.744 540.762 207.375 541.075 203.238C541.434 198.492 539.828 196.854 534.908 196.9C511.081 197.122 487.251 197.053 463.422 196.951C458.632 196.93 453.844 196.319 448.299 195.678C438.788 195.246 430.032 195.046 421.278 195.08C420.223 195.084 419.173 196.354 418.043 196.7C417.915 195.905 417.865 195.447 417.814 194.989C418.055 194.702 418.296 194.415 419.245 194.024C461.114 193.919 502.274 193.919 544.154 193.919C544.154 203.755 544.154 212.844 544.154 221.933C542.547 222.631 540.956 223.89 539.332 223.933C530.571 224.164 521.803 224.093 512.582 224.171Z" fill="#A7CEFA"/>
<path d="M259.703 322.012C268.366 321.94 276.714 321.957 285.526 321.917C286.697 322.362 287.403 322.864 288.147 324.127C288.19 327.594 288.195 330.298 288.2 333.002C288.159 333.459 288.118 333.916 288.053 335.171C288.062 340.295 288.095 344.621 288.128 348.947C287.635 349.918 287.143 350.889 285.847 351.907C276.719 352.025 268.395 352.097 260.071 352.169C259.395 351.648 258.72 351.128 258.015 349.813C257.959 340.696 257.934 332.374 257.908 324.052C258.401 323.401 258.894 322.751 259.703 322.012ZM275.152 325.002C273.325 325.002 271.468 325.214 269.677 324.962C264.401 324.218 262.247 327.181 262.147 331.71C262.056 335.802 262.554 339.961 263.331 343.987C263.557 345.162 265.584 346.756 266.861 346.829C272.369 347.143 277.904 346.964 283.886 346.964C284.308 339.566 284.694 332.803 285.061 326.366C281.158 325.787 278.599 325.407 275.152 325.002Z" fill="#A7CEFA"/>
<path d="M543.82 165.008C544.989 164.02 546.133 162.211 547.33 162.176C555.762 161.931 564.208 161.957 572.642 162.169C573.773 162.197 575.808 163.733 575.83 164.612C576.049 173.209 575.948 181.815 575.856 190.417C575.85 190.909 575.133 191.392 573.887 191.943C564.749 192.016 556.469 191.901 548.196 192.098C544.938 192.175 543.875 191.097 543.936 187.845C544.079 180.236 543.881 172.621 543.82 165.008ZM573.936 171.356C574.872 166.186 572.533 164.411 567.578 164.954C565.118 165.223 562.603 164.965 560.114 165.006C554.979 165.089 549.13 163.423 546.724 170.354C546.62 170.655 546.49 170.946 546.372 171.242C546.583 171.229 546.795 171.217 547.007 171.204C547.287 176.955 547.568 182.706 547.873 188.971C555.288 188.971 562.891 189.081 570.48 188.822C571.355 188.792 572.745 186.776 572.891 185.56C573.418 181.148 573.518 176.685 573.936 171.356Z" fill="#A7CEFA"/>
<path d="M321.873 382.046C321.892 382.501 321.911 382.956 321.868 383.746C312.187 384.073 302.569 384.065 292.488 384.119C291.39 383.659 290.754 383.138 290.094 381.83C290.062 372.695 290.053 364.347 290.045 355.999C290.307 355.549 290.57 355.1 291.415 354.395C302.378 354.174 312.758 354.209 323.139 354.243C322.933 354.728 322.726 355.213 321.936 355.999C318.123 356.784 314.902 357.596 311.664 357.671C307.558 357.766 303.42 356.906 299.331 357.119C295.397 357.325 292.253 358.964 292.966 363.972C293.453 367.393 294.089 370.878 293.894 374.291C293.603 379.378 296.697 380.641 300.591 380.935C307.673 381.468 314.778 381.692 321.873 382.046Z" fill="#A7CEFA"/>
<path d="M417.004 226.176C417.187 229.316 414.973 229 412.956 228.998C405.317 228.992 397.678 228.995 389.001 228.995C389.001 247.13 389.057 264.971 388.928 282.811C388.912 284.991 387.901 287.164 387.191 289.697C386.884 292.174 386.735 294.295 386.263 296.254C385.938 273.081 385.936 250.07 385.934 227.059C386.752 226.702 387.57 226.344 389.195 225.983C399.003 226.046 408.004 226.111 417.004 226.176Z" fill="#A7CEFA"/>
<path d="M543.442 165.114C543.88 172.621 544.078 180.236 543.935 187.845C543.874 191.097 544.937 192.175 548.195 192.098C556.468 191.901 564.748 192.016 573.486 192.062C567.244 192.413 560.544 192.834 553.838 192.971C546.207 193.127 545.05 194.232 544.992 201.991C544.945 208.435 544.791 214.878 544.419 221.626C544.154 212.844 544.154 203.755 544.154 193.919C502.275 193.919 461.114 193.919 419.488 193.879C421.12 193.228 423.221 192.072 425.315 192.085C460.907 192.304 496.498 192.669 532.089 192.994C533.586 193.008 535.136 193.177 536.571 192.863C540.275 192.054 542.964 191.243 542.298 185.765C541.481 179.047 542.716 172.08 543.442 165.114Z" fill="#4E84CB"/>
<path d="M448.535 256.06C450.204 255.053 452.321 253.172 454.466 253.14C471.098 252.894 487.74 252.817 504.371 253.123C509.156 253.211 510.493 251.624 510.049 247.178C509.507 241.751 509.126 236.287 509.125 230.839C509.124 228.943 510.463 227.046 511.562 225.093C511.974 233.83 511.843 242.63 512.135 251.416C512.263 255.265 510.849 256.137 507.246 256.109C487.83 255.957 468.413 256.041 448.535 256.06Z" fill="#A7CEFA"/>
<path d="M385.648 227.353C385.936 250.07 385.938 273.081 386.02 296.555C386.101 305.12 386.101 313.222 386.101 322.195C375.728 322.195 365.85 322.195 355.508 322.151C361.531 321.405 368.003 320.334 374.507 320.09C383.75 319.744 383.909 319.77 384.01 310.456C384.301 283.667 384.662 256.879 385.014 230.091C385.025 229.274 385.242 228.461 385.648 227.353Z" fill="#4C83C6"/>
<path d="M323.44 354.2C312.757 354.209 302.377 354.174 291.535 354.165C292.582 353.794 294.082 353.089 295.599 353.052C312.157 352.639 328.718 352.298 345.279 352.014C349.776 351.937 352.018 349.853 352.004 345.337C351.987 339.692 351.898 334.044 352.064 328.403C352.114 326.716 352.915 325.051 353.741 323.218C354.123 331.888 354.195 340.718 354.084 349.546C354.066 351.01 353.245 352.464 351.916 353.907C342.346 353.977 333.654 354.062 324.962 354.147C324.555 354.15 324.149 354.154 323.44 354.2Z" fill="#4C83C6"/>
<path d="M417.256 225.962C408.003 226.111 399.003 226.046 389.545 225.935C395.442 225.595 401.795 225.173 408.153 225.04C415.566 224.886 416.004 224.561 416.008 217.123C416.011 211.341 415.936 205.559 416.056 199.78C416.087 198.252 416.712 196.737 417.44 195.103C417.866 195.447 417.917 195.905 418.012 197.165C418.099 206.611 418.14 215.254 418.182 223.898C417.957 224.514 417.733 225.131 417.256 225.962Z" fill="#5483BA"/>
<path d="M447.953 288.454C447.278 287.859 446.109 286.814 446.093 285.751C445.953 276.541 445.996 267.327 446.08 258.114C446.085 257.469 446.85 256.83 447.669 256.13C448.049 266.713 448.021 277.354 447.953 288.454Z" fill="#A7CEFA"/>
<path d="M289.736 356.285C290.052 364.347 290.061 372.695 290.023 381.507C289.651 377.611 289.149 373.256 289.049 368.892C288.955 364.79 289.285 360.679 289.736 356.285Z" fill="#4C83C6"/>
<path d="M257.629 324.351C257.934 332.374 257.96 340.696 257.933 349.478C257.704 341.508 257.527 333.079 257.629 324.351Z" fill="#4C83C6"/>
<path d="M260.381 352.43C268.397 352.097 276.721 352.025 285.51 351.995C281.638 352.359 277.307 352.841 272.966 352.958C268.879 353.069 264.782 352.796 260.381 352.43Z" fill="#4E84CB"/>
<path d="M288.565 332.899C288.196 330.298 288.191 327.594 288.274 324.446C288.551 326.934 288.74 329.865 288.565 332.899Z" fill="#4E84CB"/>
<path d="M288.398 348.645C288.096 344.621 288.064 340.295 288.092 335.514C288.325 339.487 288.496 343.915 288.398 348.645Z" fill="#4E84CB"/>
<path d="M479.625 290.042C478.203 290.294 476.354 290.441 474.23 290.353C475.703 290.057 477.451 289.997 479.625 290.042Z" fill="#B6CFE7"/>
<path d="M354.854 322.15C354.939 322.351 354.735 322.612 354.266 322.963C354.241 322.813 354.429 322.532 354.854 322.15Z" fill="#4C83C6"/>
<path d="M416.846 543.885C406.945 543.908 397.043 543.931 386.664 543.511C386.107 533.028 386.028 522.987 386.419 513.003C396.856 513.102 406.825 513.145 416.834 513.642C416.914 524.059 416.953 534.023 416.967 543.944C416.943 543.902 416.846 543.885 416.846 543.885Z" fill="#F9FEFE"/>
<path d="M416.793 513.188C406.825 513.145 396.856 513.103 386.436 513.022C385.985 512.984 386.023 513.017 386.028 512.547C386.072 502.393 386.11 492.709 386.472 482.824C388.966 482.085 391.134 481.087 393.307 481.078C418.233 480.968 443.161 480.958 468.087 481.054C472.696 481.072 477.303 481.675 481.91 482.008C481.935 491.981 481.959 501.954 481.953 512.379C481.758 512.892 481.592 512.953 480.717 513.036C470.049 513.079 460.092 513.101 450.094 513.087C450.054 513.05 449.978 512.977 450.078 512.586C451.85 511.8 453.504 511.162 455.194 511.052C461.883 510.615 468.583 510.321 475.28 510.02C478.59 509.871 480.025 508.114 480.008 504.906C479.982 499.917 480.02 494.928 480.003 489.939C479.981 483.786 479.228 483.009 473.124 483.004C455.414 482.988 437.704 482.993 419.993 483.002C411.591 483.005 403.17 482.738 394.798 483.251C392.573 483.387 388.872 485.746 388.659 487.438C388.028 492.456 388.695 497.658 389.059 502.773C389.309 506.292 390.438 509.295 394.798 509.425C400.592 509.598 406.403 509.614 412.165 510.142C413.877 510.298 415.451 511.947 417.015 512.982C416.942 513.052 416.793 513.188 416.793 513.188Z" fill="#4E84CB"/>
<path d="M450.134 513.123C460.091 513.101 470.049 513.079 480.464 513.114C479.313 517.201 475.559 516.375 472.497 516.607C469.742 516.816 466.928 516.049 464.137 516.03C452.651 515.953 450.776 518.474 452.793 530.182C453.336 533.331 452.802 536.649 453.085 539.861C453.518 544.772 450.639 545.363 445.968 545.031C439.7 545.339 434.327 545.807 428.949 545.873C427.293 545.893 425.625 544.815 424.43 544.166C433.128 544.093 441.359 544.093 450.134 544.093C450.134 533.282 450.134 523.202 450.134 513.123Z" fill="#A7CEFA"/>
<path d="M385.967 512.965C386.028 522.987 386.107 533.028 386.21 543.537C376.971 544.037 367.703 543.938 358.443 544.169C355.013 544.255 353.808 543.254 353.901 539.717C354.128 531.119 353.977 522.511 353.967 513.436C353.956 512.965 353.983 512.971 354.256 512.95C354.715 512.891 354.9 512.855 355.542 512.878C366.007 512.965 376.015 512.991 386.023 513.017C386.023 513.017 385.984 512.984 385.967 512.965ZM381.993 516.134C381.268 515.428 380.558 514.126 379.818 514.108C372.938 513.946 366.048 513.874 359.175 514.135C358.089 514.176 357.071 516.009 356.009 517.948C356.013 523.962 356.016 529.976 355.995 536.815C356.32 542.269 358.172 543.758 363.287 542.788C365.177 542.43 367.099 542.248 369.862 541.995C371.575 541.997 373.288 541.998 375.53 542.571C382.984 543.591 383.988 542.73 384.001 535.277C384.009 530.47 384.142 525.656 383.915 520.859C383.852 519.537 382.696 518.267 382.002 516.996C382.002 516.996 382.032 516.961 381.993 516.134Z" fill="#5483BA"/>
<path d="M423.962 544.239C425.625 544.815 427.294 545.893 428.949 545.873C434.327 545.807 439.7 545.339 445.542 545.043C444.349 546.366 442.708 548.758 441.026 548.787C434.241 548.904 427.428 548.453 420.664 547.81C419.342 547.684 418.191 545.767 416.904 544.281C416.846 543.885 416.943 543.902 417.372 543.951C418.874 544.075 419.948 544.15 421.117 544.355C421.211 544.486 421.648 544.555 421.648 544.555C421.648 544.555 421.986 544.231 422.314 544.181C423.083 544.167 423.522 544.203 423.962 544.239Z" fill="#B5D0E8"/>
<path d="M543.934 639.921C544.57 639.135 545.85 638.445 545.882 637.701C546.195 630.443 546.321 623.176 546.455 615.911C546.525 612.113 548.272 610.013 552.188 610.003C557.269 609.99 562.351 610.083 567.43 609.975C571.507 609.889 573.093 611.821 573.042 615.775C572.936 623.938 573.014 632.104 573.014 640.269C573.014 648.35 572.939 656.433 573.044 664.513C573.085 667.654 571.94 668.999 568.679 669.058C557.803 669.257 546.93 669.956 536.058 669.922C521.435 669.877 506.812 669.375 492.191 668.976C486.033 668.808 485.133 667.65 484.953 661.572C484.835 657.608 484.302 653.658 484.015 649.697C483.726 645.7 485.616 644.068 489.638 643.939C506.553 643.397 523.462 642.682 540.37 641.943C541.527 641.892 542.653 641.127 543.822 640.281C543.851 639.869 543.998 639.993 543.934 639.921Z" fill="#3B82EE"/>
<path d="M713.002 638.984C711.938 638.988 710.874 638.991 709.357 638.584C708.621 630.367 708.203 622.56 708.236 614.754C708.24 613.831 710.688 612.195 712.056 612.137C716.306 611.957 720.597 612.675 724.843 612.469C728.027 612.314 729.043 613.509 729.015 616.398C728.967 621.491 728.953 626.584 729.017 631.676C729.064 635.474 727.2 636.852 723.511 637.096C719.982 637.33 716.503 638.324 713.002 638.984Z" fill="#3B82EE"/>
<path d="M713.265 639.272C716.503 638.324 719.982 637.329 723.511 637.096C727.2 636.852 729.064 635.474 729.017 631.676C728.953 626.584 728.967 621.49 729.015 616.398C729.043 613.509 728.027 612.314 724.843 612.468C720.597 612.674 716.307 611.956 712.056 612.136C710.689 612.194 708.24 613.831 708.236 614.754C708.203 622.559 708.621 630.367 708.958 638.575C707.674 637.226 705.317 635.551 705.182 633.713C704.709 627.266 705.035 620.762 704.989 614.281C704.965 610.817 706.492 608.991 710.049 608.999C716.53 609.013 723.013 609.067 729.494 608.966C732.03 608.927 733.076 609.838 733.038 612.443C732.932 619.755 733.206 627.08 732.82 634.372C732.736 635.952 730.671 638.539 729.252 638.736C724.072 639.452 718.778 639.353 713.265 639.272Z" fill="#4482DA"/>
<path d="M452.044 709.52C457.768 708.661 463.485 708.247 469.205 707.873C473.988 707.56 478.772 707.106 483.56 707.035C510.319 706.637 537.08 706.299 563.841 706.022C572.234 705.936 574.407 708.842 573.238 717.165C572.71 720.924 572.975 724.808 573.038 728.633C573.084 731.44 572.193 733.053 569.078 733.034C559.506 732.977 549.931 732.897 540.361 733.055C528.58 733.249 516.802 733.957 505.024 733.929C490.415 733.894 475.798 733.528 461.207 732.832C458.337 732.695 455.57 730.41 452.399 729.032C452.041 722.627 452.04 716.305 452.044 709.52Z" fill="#3B82EE"/>
<path d="M481.95 481.693C477.301 481.675 472.695 481.071 468.086 481.054C443.159 480.958 418.232 480.968 393.305 481.077C391.133 481.087 388.964 482.084 386.392 482.586C385.99 482.549 385.825 482.078 385.873 481.734C385.949 480.927 385.976 480.464 386.003 480.001C417.684 479.98 449.366 479.959 481.511 480.023C481.98 480.531 481.985 480.954 481.95 481.693Z" fill="#5483BA"/>
<path d="M385.534 479.979C385.976 480.464 385.949 480.927 385.601 481.984C384.853 485.809 384.077 489.038 384.058 492.271C383.95 510.924 384.011 510.924 365.143 509.998C364.977 509.99 364.789 510.044 364.648 509.983C360.67 508.271 357.76 510.147 355.085 512.818C354.899 512.855 354.714 512.892 354.246 512.942C353.963 502.217 353.963 491.477 353.963 479.957C364.649 479.957 374.857 479.957 385.534 479.979Z" fill="#B8D1E4"/>
<path d="M321.926 381.575C314.777 381.693 307.672 381.468 300.59 380.935C296.696 380.642 293.602 379.378 293.893 374.292C294.088 370.879 293.452 367.393 292.965 363.972C292.252 358.964 295.396 357.325 299.33 357.12C303.419 356.906 307.557 357.766 311.663 357.671C314.901 357.596 318.122 356.785 321.728 356.169C322.064 364.393 322.022 372.749 321.926 381.575Z" fill="#B8D1E4"/>
<path d="M325.295 354.394C333.655 354.062 342.347 353.977 351.494 353.98C343.175 354.258 334.4 354.449 325.295 354.394Z" fill="#A7CEFA"/>
<path d="M639.994 548.002C640.175 547.457 640.356 546.912 640.77 546.191C651.111 546.016 661.218 546.016 671.582 546.016C671.762 547.821 671.999 549.101 672.001 550.381C672.022 568.023 672.014 585.666 672.003 603.308C672.002 605.607 672.496 608.045 668.74 608.028C648.787 607.941 628.834 607.987 607.986 607.987C607.986 597.397 607.986 587.16 608.003 576.452C608.02 575.981 607.997 576 608.458 576.001C617.861 576.008 626.804 575.907 635.742 576.076C638.94 576.137 640.13 575.145 640.051 571.842C639.86 563.9 639.992 555.949 639.994 548.002Z" fill="#FDFFFE"/>
<path d="M639.629 548.046C639.992 555.95 639.86 563.9 640.051 571.843C640.13 575.146 638.94 576.137 635.742 576.077C626.804 575.908 617.861 576.009 608.45 576.014C607.999 565.621 608.02 555.218 608.463 544.391C609.913 544.046 610.941 544.125 611.978 544.521C612.326 545.557 612.665 546.277 613.003 546.997C613.72 547.63 614.378 548.721 615.164 548.824C621.394 549.639 627.638 550.509 633.903 550.793C635.645 550.872 637.474 549.043 639.629 548.046Z" fill="#B8D1E4"/>
<path d="M611.969 544.204C610.942 544.125 609.914 544.047 608.504 543.916C608.121 533.886 608.121 523.907 608.121 513.107C598.14 513.107 588.562 513.107 578.256 513.042C577.345 512.974 577.161 512.971 576.977 512.969C576.977 512.969 576.925 512.918 576.998 512.517C578.093 511.422 579.104 510.144 580.137 510.126C588.286 509.983 596.457 509.756 604.584 510.218C609.916 510.521 611.965 513.445 611.983 518.837C612.004 524.827 611.755 530.832 612.152 536.796C612.25 538.264 614.325 540.713 615.62 540.799C621.914 541.221 628.259 541.137 634.568 540.843C635.546 540.797 637.207 538.754 637.232 537.607C637.376 530.803 636.956 523.986 637.159 517.187C637.201 515.777 639.073 514.422 640.101 513.042C640.085 523.044 640.069 533.047 640.052 543.516C640.052 543.983 639.985 543.985 639.513 544.018C630.017 544.102 620.993 544.153 611.969 544.204Z" fill="#4E84CB"/>
<path d="M576.617 518.897C576.239 518.82 576.188 518.513 576.463 517.974C576.833 518.052 576.885 518.36 576.617 518.897Z" fill="#A7CEFA"/>
<path d="M576.894 513.193C577.16 512.971 577.344 512.974 577.791 513.061C577.877 513.439 577.635 513.659 577.082 513.852C576.837 513.897 576.812 513.418 576.894 513.193Z" fill="#A7CEFA"/>
<path d="M640.323 513.011C639.072 514.422 637.201 515.777 637.159 517.187C636.955 523.986 637.376 530.803 637.231 537.607C637.207 538.754 635.546 540.797 634.567 540.843C628.258 541.137 621.914 541.22 615.619 540.799C614.325 540.713 612.25 538.264 612.152 536.796C611.755 530.832 612.003 524.827 611.983 518.837C611.965 513.445 609.916 510.521 604.583 510.218C596.457 509.756 588.285 509.983 580.137 510.126C579.103 510.144 578.092 511.422 576.973 512.491C573.414 513.033 573.049 515.513 573.027 518.141C572.98 523.798 572.893 529.459 573.04 535.113C573.151 539.384 571.281 541.054 567.055 541.071C561.937 541.093 556.82 541.575 551.705 541.9C548.441 542.107 546.049 539.126 546.035 534.568C545.997 522.313 545.987 510.057 546.02 497.802C546.029 494.215 546.037 490.608 546.433 487.053C546.548 486.02 547.834 484.644 548.877 484.287C551.03 483.551 553.378 483.08 555.652 483.054C566.549 482.93 577.45 483.089 588.348 482.965C611.437 482.704 634.525 482.33 657.614 482.006C658.612 481.992 659.617 481.944 660.608 482.033C667.612 482.658 669.01 484.181 669.012 491.122C669.013 495.948 668.912 500.776 669.041 505.598C669.127 508.803 667.793 509.996 664.605 510.066C657.82 510.215 651.039 510.632 644.264 511.046C643.223 511.11 642.217 511.742 641.087 512.494C640.98 512.876 640.545 512.98 640.323 513.011Z" fill="#3B82EE"/>
<path d="M611.979 544.52C620.992 544.153 630.016 544.101 639.505 544.05C637.513 547.032 635.131 547.827 630.783 546.817C625.444 545.577 619.527 546.821 613.432 546.994C612.665 546.277 612.327 545.557 611.979 544.52Z" fill="#A7CEFA"/>
<path d="M418.637 223.927C418.141 215.254 418.099 206.611 418.09 197.502C419.174 196.353 420.224 195.084 421.279 195.08C430.034 195.046 438.79 195.246 447.867 195.671C448.125 203.894 447.93 211.824 448.06 219.749C448.112 222.933 447.173 224.152 443.87 224.074C435.614 223.877 427.351 223.976 418.637 223.927Z" fill="#F9FEFE"/>
<path d="M275.596 325.015C278.6 325.407 281.159 325.787 285.062 326.366C284.695 332.803 284.309 339.566 283.886 346.964C277.905 346.964 272.369 347.143 266.862 346.829C265.584 346.756 263.558 345.162 263.331 343.986C262.555 339.961 262.057 335.802 262.147 331.71C262.248 327.181 264.402 324.218 269.678 324.962C271.469 325.214 273.326 325.002 275.596 325.015Z" fill="#B8D1E4"/>
<path d="M573.857 171.798C573.517 176.684 573.418 181.148 572.89 185.56C572.745 186.775 571.354 188.791 570.48 188.821C562.89 189.081 555.288 188.971 547.872 188.971C547.567 182.705 547.287 176.955 547.007 171.204C546.795 171.216 546.583 171.229 546.371 171.241C546.489 170.946 546.62 170.654 546.724 170.354C549.13 163.423 554.979 165.089 560.113 165.005C562.602 164.965 565.117 165.223 567.578 164.953C572.533 164.411 574.871 166.185 573.857 171.798Z" fill="#B6D0E6"/>
<path d="M424.428 544.166C423.521 544.203 423.081 544.167 422.072 544.133C421.503 544.136 421.021 544.224 421.021 544.224C419.947 544.149 418.873 544.075 417.395 543.994C416.951 534.023 416.912 524.059 416.833 513.641C416.792 513.188 416.94 513.051 417.392 513.064C418.561 514.746 419.826 516.392 419.897 518.087C420.149 524.139 420.101 530.21 419.955 536.269C419.874 539.614 421.026 541.145 424.553 541.057C430.952 540.897 437.361 540.877 443.758 541.071C446.987 541.169 448.171 540.11 448.066 536.811C447.861 530.34 447.888 523.853 448.098 517.382C448.146 515.895 449.32 514.444 449.976 512.977C449.976 512.977 450.052 513.05 450.092 513.086C450.132 523.202 450.132 533.281 450.132 544.093C441.357 544.093 433.127 544.093 424.428 544.166Z" fill="#4E84CB"/>
<path d="M450.078 512.586C449.322 514.445 448.147 515.895 448.099 517.383C447.89 523.854 447.862 530.341 448.068 536.812C448.173 540.11 446.989 541.169 443.759 541.072C437.362 540.878 430.953 540.898 424.555 541.058C421.028 541.146 419.876 539.615 419.956 536.27C420.102 530.211 420.151 524.14 419.898 518.088C419.828 516.392 418.563 514.747 417.467 512.996C415.451 511.948 413.876 510.298 412.165 510.142C406.402 509.614 400.592 509.598 394.798 509.425C390.438 509.295 389.309 506.293 389.059 502.773C388.695 497.658 388.028 492.456 388.659 487.439C388.872 485.747 392.573 483.387 394.798 483.251C403.17 482.739 411.591 483.006 419.993 483.002C437.704 482.994 455.414 482.989 473.124 483.004C479.228 483.01 479.981 483.787 480.003 489.94C480.02 494.928 479.982 499.917 480.008 504.906C480.025 508.115 478.59 509.871 475.28 510.02C468.582 510.321 461.883 510.615 455.193 511.052C453.504 511.162 451.85 511.8 450.078 512.586Z" fill="#3B82EE"/>
<path d="M355.541 512.878C357.76 510.147 360.669 508.271 364.648 509.983C364.788 510.044 364.977 509.99 365.142 509.998C384.01 510.924 383.95 510.924 384.057 492.271C384.076 489.038 384.852 485.809 385.552 482.328C385.825 482.078 385.99 482.549 386.068 482.787C386.109 492.709 386.07 502.393 386.027 512.547C376.014 512.991 366.006 512.964 355.541 512.878Z" fill="#A7CEFA"/>
<path d="M356.02 535.99C356.017 529.976 356.013 523.962 356.429 517.425C365.243 516.921 373.637 516.941 382.032 516.961C382.032 516.961 382.003 516.997 382.008 517.456C382.009 522.205 382.006 526.495 382.003 530.786C381.997 539.403 381.997 539.403 375.001 542C373.288 541.999 371.575 541.997 369.362 541.624C366.624 540.896 364.387 540.54 361.868 540.14C360.198 538.955 358.109 537.472 356.02 535.99Z" fill="#3B82EE"/>
<path d="M375.266 542.285C381.996 539.402 381.996 539.402 382.003 530.785C382.006 526.495 382.009 522.205 382.027 517.443C382.696 518.266 383.853 519.537 383.915 520.859C384.143 525.655 384.009 530.469 384.001 535.277C383.989 542.729 382.985 543.59 375.266 542.285Z" fill="#4682DA"/>
<path d="M382.011 516.548C373.636 516.941 365.241 516.921 356.434 516.958C357.07 516.009 358.088 514.176 359.174 514.135C366.047 513.875 372.937 513.946 379.817 514.109C380.557 514.126 381.267 515.428 382.011 516.548Z" fill="#4682DA"/>
<path d="M356.008 536.402C358.109 537.472 360.198 538.954 361.868 540.139C364.387 540.54 366.624 540.896 368.934 541.619C367.099 542.248 365.177 542.43 363.288 542.788C358.172 543.758 356.32 542.269 356.008 536.402Z" fill="#4682DA"/>
<path d="M421.116 544.356C421.021 544.225 421.503 544.136 421.744 544.184C421.985 544.231 421.647 544.556 421.647 544.556C421.647 544.556 421.21 544.486 421.116 544.356Z" fill="#A7CEFA"/>
</g>
<defs>
<clipPath id="clip0_6174_2623">
<rect width="1024" height="1024" fill="white"/>
</clipPath>
</defs>
</svg>
